<svg xmlns="http://www.w3.org/2000/svg" aria-hidden="true" style="position:absolute;width:0;height:0;overflow:hidden"><defs><symbol id="icon-icon-facebook-big" viewBox="0 0 32 32"><path fill="#4d5ae5" d="M32 16c0 4.418-1.791 8.418-4.686 11.314S20.419 32 16 32c-4.418 0-8.418-1.791-11.314-4.686S0 20.419 0 16c0-4.418 1.791-8.418 4.686-11.314S11.581 0 16 0c4.418 0 8.418 1.791 11.314 4.686S32 11.581 32 16z" style="fill:var(--color1, #4d5ae5)"/><path fill="#f4f4fd" d="M19.198 9.588h1.753V6.535a22.54 22.54 0 0 0-2.554-.135c-2.527 0-4.258 1.59-4.258 4.511V13.6H11.35v3.413h2.789V25.6h3.419v-8.586h2.676l.425-3.413h-3.102V11.25c.001-.986.266-1.662 1.641-1.662z" style="fill:var(--color2, #f4f4fd)"/></symbol><symbol id="icon-icon-instagram-big" viewBox="0 0 32 32"><path fill="#4d5ae5" d="M32 16c0 4.418-1.791 8.418-4.686 11.314S20.419 32 16 32c-4.418 0-8.418-1.791-11.314-4.686S0 20.419 0 16c0-4.418 1.791-8.418 4.686-11.314S11.581 0 16 0c4.418 0 8.418 1.791 11.314 4.686S32 11.581 32 16z" style="fill:var(--color1, #4d5ae5)"/><path fill="#f4f4fd" d="M25.581 12.045c-.045-1.02-.21-1.722-.446-2.329a4.693 4.693 0 0 0-1.11-1.703 4.714 4.714 0 0 0-1.699-1.106c-.611-.236-1.309-.401-2.329-.446-1.028-.049-1.354-.06-3.961-.06s-2.933.011-3.957.056c-1.02.045-1.722.21-2.329.446a4.693 4.693 0 0 0-1.703 1.11 4.723 4.723 0 0 0-1.106 1.699c-.236.611-.401 1.309-.446 2.329-.049 1.028-.06 1.354-.06 3.961s.011 2.933.056 3.957c.045 1.02.21 1.722.446 2.329a4.745 4.745 0 0 0 1.11 1.703c.48.488 1.061.866 1.699 1.106.611.236 1.309.401 2.329.446 1.024.045 1.35.056 3.957.056s2.933-.011 3.957-.056c1.02-.045 1.722-.21 2.329-.446a4.912 4.912 0 0 0 2.809-2.809c.236-.611.401-1.309.446-2.329.045-1.024.056-1.35.056-3.957s-.004-2.933-.049-3.957zm-1.729 7.839c-.041.938-.199 1.444-.33 1.782a3.187 3.187 0 0 1-1.823 1.823c-.338.131-.848.289-1.782.33-1.013.045-1.316.056-3.878.056s-2.869-.011-3.878-.056c-.938-.041-1.444-.199-1.782-.33a2.972 2.972 0 0 1-1.103-.716 2.964 2.964 0 0 1-.716-1.103c-.131-.338-.289-.848-.33-1.782-.045-1.013-.056-1.317-.056-3.878s.011-2.869.056-3.878c.041-.938.199-1.444.33-1.782.154-.416.398-.795.72-1.103a2.964 2.964 0 0 1 1.103-.716c.338-.131.848-.289 1.782-.33 1.013-.045 1.317-.056 3.878-.056 2.566 0 2.869.011 3.878.056.938.041 1.444.199 1.782.33a2.96 2.96 0 0 1 1.103.716c.319.311.563.686.716 1.103.131.338.289.848.33 1.782.045 1.013.056 1.316.056 3.878s-.011 2.862-.056 3.875z" style="fill:var(--color2, #f4f4fd)"/><path fill="#f4f4fd" d="M16.036 11.07a4.933 4.933 0 0 0 0 9.864 4.933 4.933 0 0 0 0-9.864zm0 8.131a3.2 3.2 0 1 1 .002-6.4 3.2 3.2 0 0 1-.002 6.4zM22.314 10.875a1.151 1.151 0 1 1-2.303 0 1.151 1.151 0 0 1 2.303 0z" style="fill:var(--color2, #f4f4fd)"/></symbol><symbol id="icon-icon-linkedin-big" viewBox="0 0 32 32"><path fill="#4d5ae5" d="M32 16c0 4.418-1.791 8.418-4.686 11.314S20.419 32 16 32c-4.418 0-8.418-1.791-11.314-4.686S0 20.419 0 16c0-4.418 1.791-8.418 4.686-11.314S11.581 0 16 0c4.418 0 8.418 1.791 11.314 4.686S32 11.581 32 16z" style="fill:var(--color1, #4d5ae5)"/><path fill="#f4f4fd" d="M25.595 25.6v-.001h.005v-7.042c0-3.445-.742-6.098-4.769-6.098-1.936 0-3.235 1.062-3.766 2.07h-.056v-1.748h-3.818v12.818h3.976v-6.347c0-1.671.317-3.287 2.386-3.287 2.039 0 2.07 1.907 2.07 3.394V25.6h3.972zM6.717 12.782h3.981V25.6H6.717V12.782zM8.706 6.4C7.433 6.4 6.4 7.433 6.4 8.706s1.033 2.327 2.306 2.327c1.273 0 2.306-1.054 2.306-2.327S9.978 6.4 8.706 6.4z" style="fill:var(--color2, #f4f4fd)"/></symbol><symbol id="icon-icon-twitter-big" viewBox="0 0 32 32"><path fill="#4d5ae5" d="M32 16c0 4.418-1.791 8.418-4.686 11.314S20.419 32 16 32c-4.418 0-8.418-1.791-11.314-4.686S0 20.419 0 16c0-4.418 1.791-8.418 4.686-11.314S11.581 0 16 0c4.418 0 8.418 1.791 11.314 4.686S32 11.581 32 16z" style="fill:var(--color1, #4d5ae5)"/><path fill="#f4f4fd" d="M25.6 10.047a8.223 8.223 0 0 1-2.268.622 3.915 3.915 0 0 0 1.732-2.176 7.866 7.866 0 0 1-2.496.953 3.936 3.936 0 0 0-6.809 2.691c0 .312.026.612.091.898a11.143 11.143 0 0 1-8.113-4.117 3.96 3.96 0 0 0-.539 1.99c0 1.363.702 2.572 1.748 3.271a3.888 3.888 0 0 1-1.778-.485v.043a3.954 3.954 0 0 0 3.154 3.868c-.32.088-.67.13-1.032.13-.252 0-.506-.014-.745-.067.51 1.559 1.957 2.705 3.678 2.742a7.907 7.907 0 0 1-4.88 1.679c-.323 0-.632-.014-.942-.054a11.085 11.085 0 0 0 6.038 1.766c7.243 0 11.203-6 11.203-11.201 0-.174-.006-.342-.014-.509a7.845 7.845 0 0 0 1.973-2.044z" style="fill:var(--color2, #f4f4fd)"/></symbol><symbol id="icon-icon-1" viewBox="0 0 75 32"><path fill="#f4f4fd" d="M1.143 0h73.143c.631 0 1.143.512 1.143 1.143v29.714c0 .631-.512 1.143-1.143 1.143H1.143A1.143 1.143 0 0 1 0 30.857V1.143C0 .512.512 0 1.143 0z" style="fill:var(--color2, #f4f4fd)"/><path fill="#2e2f42" d="m46.156 19.484-4.825-4.86.535-2.637c.138.054.285.082.433.083h.004a1.234 1.234 0 1 0-1.148-.82l-2.834.346-4.623-4.647a.301.301 0 0 0-.428-.002l-.864.859a.305.305 0 0 0 0 .431l.465.472a8.537 8.537 0 0 0 1.44 10.093.311.311 0 0 0 .083.056 1.823 1.823 0 0 0-.03.313v3.535h-3.657a1.526 1.526 0 0 0-1.524 1.524v.61c0 .168.137.305.305.305h14.019a.305.305 0 0 0 .305-.305v-.61a1.526 1.526 0 0 0-1.524-1.524h-3.657v-1.567c.573.12 1.157.181 1.742.183a8.496 8.496 0 0 0 4.023-1.019l.467.47a.301.301 0 0 0 .428.002l.864-.859a.305.305 0 0 0 0-.431zm-4.282-9.065a.61.61 0 1 1 .429 1.041h-.002a.609.609 0 0 1-.426-1.042h-.001zm-.717 2.002-.342 1.683-.672-.676 1.014-1.008zm-.346-.515-1.097 1.091-.849-.853 1.946-.237zm1.477 11.408c.505 0 .914.409.914.914v.305H29.793v-.305c0-.505.409-.914.914-.914h11.581zm-4.267-1.219v.61h-3.048v-.61h3.048zm-3.047-.609V19.17c0-.739.684-1.341 1.524-1.341s1.524.602 1.524 1.341v2.316h-3.048zm3.657-.969V19.17c0-1.075-.957-1.95-2.133-1.95a2.169 2.169 0 0 0-1.875 1.021 7.924 7.924 0 0 1-1.302-9.078l10.63 10.691a7.899 7.899 0 0 1-5.319.665zm6.451-.391L33.049 8.023l.431-.43 4.534 4.56c.002 0 .003.004.006.005l7.494 7.538-.433.43z" style="fill:var(--color3, #2e2f42)"/><path fill="#4d5ae5" d="M36.5 18.438h-.003a.915.915 0 0 0-.002 1.829h.003a.915.915 0 0 0 .003-1.829zm.214 1.13a.305.305 0 1 1-.216-.521.304.304 0 0 1 .213.521h.003z" style="fill:var(--color1, #4d5ae5)"/></symbol><symbol id="icon-icon-2" viewBox="0 0 75 32"><path fill="#f4f4fd" d="M1.143 0h73.143c.631 0 1.143.512 1.143 1.143v29.714c0 .631-.512 1.143-1.143 1.143H1.143A1.143 1.143 0 0 1 0 30.857V1.143C0 .512.512 0 1.143 0z" style="fill:var(--color2, #f4f4fd)"/><path fill="#2e2f42" d="M46.455 15.601a8.746 8.746 0 1 0-11.406 8.332.385.385 0 0 0 .303-.038.365.365 0 0 0 .162-.204l2.209-7a1.094 1.094 0 1 0-.481-2.078l-2.918-2.918a.364.364 0 0 0-.515.515l2.916 2.919a1.071 1.071 0 0 0 .306 1.319l-2.104 6.67c-4.159-1.532-6.288-6.145-4.756-10.304s6.145-6.288 10.304-4.756a8.024 8.024 0 0 1 .492 14.86l-.227-1.071a.364.364 0 0 0-.599-.196l-2.193 1.957a.363.363 0 0 0 .132.619l2.799.893a.365.365 0 0 0 .468-.422l-.223-1.051a8.718 8.718 0 0 0 5.331-8.051zm-8.745-.365a.365.365 0 1 1 0 .73.365.365 0 0 1 0-.73zm1.2 8.494 1.248-1.113.345 1.623-1.593-.51z" style="fill:var(--color3, #2e2f42)"/><path fill="#4d5ae5" d="M37.345 8.677v.729a.364.364 0 0 0 .729 0v-.729a.364.364 0 0 0-.729 0zM30.786 15.236a.364.364 0 0 0 0 .728h.729a.364.364 0 0 0 0-.728h-.729zM44.633 15.965a.365.365 0 1 0 0-.728h-.729a.364.364 0 0 0 0 .728h.729z" style="fill:var(--color1, #4d5ae5)"/></symbol><symbol id="icon-icon-3" viewBox="0 0 75 32"><path fill="#f4f4fd" d="M1.143 0h73.143c.631 0 1.143.512 1.143 1.143v29.714c0 .631-.512 1.143-1.143 1.143H1.143A1.143 1.143 0 0 1 0 30.857V1.143C0 .512.512 0 1.143 0z" style="fill:var(--color2, #f4f4fd)"/><path fill="#4d5ae5" d="M37.1 15.408h.609v2.741H37.1v-2.741zM39.537 16.627h.609v1.523h-.609v-1.523zM34.663 17.541h.609v.609h-.609v-.609zM32.836 17.236h.609v.914h-.609v-.914z" style="fill:var(--color1, #4d5ae5)"/><path fill="#2e2f42" d="M29.485 23.023h14.621a.914.914 0 0 0 .914-.914v-1.218a.914.914 0 0 0-.914-.914h-.305v-7.596l1.73-1.639a.92.92 0 1 0-.426-.436l-1.304 1.236v-.703a.914.914 0 0 0-.914-.914H30.703a.914.914 0 0 0-.914.914v9.138h-.305a.914.914 0 0 0-.914.914v1.218c0 .505.409.914.914.914zM45.934 9.621a.305.305 0 1 1 0 .61.305.305 0 0 1 0-.61zm-15.535 1.218c0-.168.136-.305.305-.305h12.184c.168 0 .305.136.305.305v1.279l-.609.579v-1.249a.305.305 0 0 0-.305-.305H31.313a.305.305 0 0 0-.305.305v7.615c0 .168.136.305.305.305h10.966a.305.305 0 0 0 .305-.305v-5.528l.609-.577v7.019H30.4v-9.138zm2.742 3.96a.914.914 0 1 0 .633 1.571l1.059.531a.304.304 0 0 0 .364-.07l2.251-2.532 2.213 1.658a.306.306 0 0 0 .392-.022l1.923-1.822v4.646H31.619v-7.006h10.357v1.52l-2.155 2.041-2.231-1.673a.304.304 0 0 0-.41.041l-2.282 2.567-.853-.427c.006-.037.01-.073.012-.111a.914.914 0 0 0-.914-.914zm.304.914a.306.306 0 1 1-.611-.001.306.306 0 0 1 .611.001zm1.828 4.874h3.046v.305a.305.305 0 0 1-.305.305h-2.437a.305.305 0 0 1-.305-.305v-.305zm-6.092.304c0-.168.137-.305.305-.305h5.178v.305c0 .505.409.914.914.914h2.437a.914.914 0 0 0 .914-.914v-.305h5.178c.168 0 .305.136.305.305v1.218a.306.306 0 0 1-.305.305H29.486a.305.305 0 0 1-.305-.305v-1.218z" style="fill:var(--color3, #2e2f42)"/></symbol><symbol id="icon-icon-4" viewBox="0 0 75 32"><path fill="#f4f4fd" d="M1.143 0h73.143c.631 0 1.143.512 1.143 1.143v29.714c0 .631-.512 1.143-1.143 1.143H1.143A1.143 1.143 0 0 1 0 30.857V1.143C0 .512.512 0 1.143 0z" style="fill:var(--color2, #f4f4fd)"/><path fill="#4d5ae5" d="M46.842 9.442a.305.305 0 0 0-.246-.207l-1.091-.159-.489-.989c-.103-.208-.444-.208-.547 0l-.489.989-1.092.159a.305.305 0 0 0-.169.519l.79.77-.187 1.087a.306.306 0 0 0 .442.321l.977-.514.977.514a.307.307 0 0 0 .321-.023.304.304 0 0 0 .121-.298l-.186-1.087.79-.77a.304.304 0 0 0 .077-.312zm-1.407.759a.304.304 0 0 0-.087.27l.109.637-.572-.3a.31.31 0 0 0-.284 0l-.572.3.109-.637a.307.307 0 0 0-.087-.27l-.463-.451.639-.093a.303.303 0 0 0 .229-.167l.286-.579.286.579c.045.09.13.152.229.167l.639.093-.462.451zM43.505 18.584h-.609v.61h.609v-.61zM43.505 19.803h-.609v.61h.609v-.61z" style="fill:var(--color1, #4d5ae5)"/><path fill="#4d5ae5" d="M44.114 19.194h-.609v.61h.609v-.61zM42.895 19.194h-.61v.61h.61v-.61zM41.371 21.937h-.609v.61h.609v-.61zM41.371 23.156h-.609v.61h.609v-.61zM41.981 22.546h-.61v.61h.61v-.61zM40.762 22.546h-.61v.61h.61v-.61zM37.714 20.718h-.609v.61h.609v-.61zM37.714 21.937h-.609v.61h.609v-.61zM38.324 21.327h-.609v.61h.609v-.61zM37.105 21.327h-.61v.61h.61v-.61zM31.924 10.355h-.609v.61h.609v-.61zM31.924 11.575h-.609v.61h.609v-.61zM32.533 10.965h-.609v.61h.609v-.61zM31.314 10.965h-.61v.61h.61v-.61z" style="fill:var(--color1, #4d5ae5)"/><path fill="#2e2f42" d="M42.694 14.948a1.013 1.013 0 0 0-.679-.403 1.016 1.016 0 0 0-.766.201l-.715.549-1.085.81-.776-.309a3.966 3.966 0 0 0 2.351-3.611c0-2.185-1.784-3.962-3.978-3.962S33.068 10 33.068 12.185c0 .792.237 1.528.64 2.148l-1.579-.014h-.003c-.005 0-.009.002-.013.003a.277.277 0 0 0-.089.018c-.007.003-.015.004-.022.008l-.011.004-1.847.912h-.001l-1.082.52a1.018 1.018 0 0 0 1.012 1.766l.793-.422 1.294-.668.775-.005-3.11 3.095-.001.001-.765.762c-.181.18-.28.418-.28.673s.099.493.28.674a.96.96 0 0 0 1.349 0l.751-.748.995-.743.515.513-1.007 1.002-.001.001-.765.762c-.181.18-.28.418-.28.673s.099.493.28.674a.955.955 0 0 0 1.348 0l1.99-1.981.001-.001.577-.571-.002-.002c.004-.004.009-.005.013-.009l2.952-3.233 1.983.282a.3.3 0 0 0 .15-.019l.028-.013c.011-.006.023-.009.033-.015l1.836-1.219c.007-.005.01-.012.017-.017s.016-.008.023-.015l.727-.681c.378-.354.43-.934.121-1.35zm-12.905 2.064a.408.408 0 0 1-.319.03.41.41 0 0 1-.122-.719l.751-.361.181.528.076.222-.567.301zm1.998-1.045-.885.457-.146-.427-.105-.307 1.158-.572-.023.848zm8.628-3.783c0 .525-.125 1.02-.342 1.463l-2.389-1.085a1.064 1.064 0 0 0-.45-.793l.837-2.777a3.358 3.358 0 0 1 2.345 3.193zm-6.736 0c0-1.848 1.511-3.352 3.368-3.352.145 0 .286.012.426.03l-.818 2.716c-.011 0-.021-.003-.033-.003-.59 0-1.07.479-1.07 1.067s.48 1.067 1.07 1.067c.397 0 .74-.219.925-.54l2.207 1.003a3.369 3.369 0 0 1-6.075-1.986zm3.404.457c0 .252-.207.457-.461.457s-.461-.205-.461-.457.207-.457.461-.457a.46.46 0 0 1 .461.457zm-7.103 8.585a.346.346 0 0 1-.589-.242c0-.091.036-.177.101-.241l.55-.548.486.484-.548.546zm1.836 2.134a.346.346 0 0 1-.589-.242c0-.091.036-.176.101-.241l.55-.548.487.484-.548.546zm1.99-1.982-.001.001-1.009 1.006-.487-.484 1.008-1.003.001-.001c.023-.023.037-.05.051-.077.004-.008.012-.015.015-.023.01-.023.011-.049.015-.073.002-.014.008-.027.008-.041 0-.02-.007-.04-.011-.06-.004-.018-.004-.037-.011-.055a.309.309 0 0 0-.052-.079c-.006-.007-.008-.015-.014-.022l-.001-.001-.918-.914c-.01-.01-.022-.014-.033-.022-.016-.012-.032-.024-.05-.033s-.035-.014-.053-.019a.228.228 0 0 0-.059-.011c-.019-.001-.036.001-.055.003-.02.002-.039.005-.059.012s-.036.016-.054.026c-.011.006-.024.009-.035.016l-1.013.756-.515-.513 1.371-1.363 2.492 2.451-.53.525zm3.896-4.01c-.009-.001-.017.002-.026.002a.293.293 0 0 0-.066.004c-.017.003-.034.006-.05.012a.311.311 0 0 0-.102.062c-.007.006-.016.009-.023.017l-2.685 2.94-2.473-2.432 1.619-1.61a.305.305 0 0 0-.217-.52l-1.268.008.016-.919 1.774.015a3.972 3.972 0 0 0 3.578 1.13c.023.018.045.037.074.049l1.377.549.087.433.102.506-1.716-.244zm2.31.102-.179-.89.827-.617.217.287.325.431-1.189.789zm2.145-1.618-.479.449-.532-.706.475-.364a.42.42 0 0 1 .31-.082.41.41 0 0 1 .225.703z" style="fill:var(--color3, #2e2f42)"/><path fill="#2e2f42" d="m36.344 17.454-1.225-1.219a.304.304 0 0 0-.43 0l-1.224 1.219a.308.308 0 0 0 0 .432l1.224 1.219a.304.304 0 0 0 .43 0l1.225-1.219a.307.307 0 0 0 0-.432zm-1.439 1.005-.792-.789.792-.789.793.789-.793.789zM38.379 9.755l-.147.592c.041.01.993.258.993 1.228h.609c0-1.153-.952-1.695-1.455-1.82zM39.835 12.184h-.609v.61h.609v-.61z" style="fill:var(--color3, #2e2f42)"/></symbol><symbol id="icon-icon-client-1" viewBox="0 0 61 32"><path fill="#8e8f99" d="m25.455 8.364 2.548 2.428-4.73-.003v11.779h12.364v-4.504l2.545 2.425V8.364H25.455zm10.07 9.415L28.3 10.895h7.225v6.884zm-2.244 3.066h-8.052v-7.922h.569v7.386h7.483v.536zm-6.446 3.905.3-.617h.247l-.435.817v.476h-.225v-.476l-.435-.817h.248l.3.617zm1.106-.618h.053l.488 1.293h-.234l-.105-.303h-.5l-.104.303h-.233l.486-1.293h.149zm-.237.814h.378l-.189-.548-.189.548zm1.562-.214a1.257 1.257 0 0 0-.12.095c-.038.034-.068.072-.09.112s-.033.086-.033.139c0 .071.017.134.051.189s.083.098.146.13a.581.581 0 0 0 .424.013.52.52 0 0 0 .133-.072l.075.088h.248l-.189-.224a.551.551 0 0 0 .095-.213.852.852 0 0 0 .019-.178h-.185a.52.52 0 0 1-.033.189c-.007.018-.014.036-.023.052l-.256-.302.09-.065c.034-.025.064-.051.091-.079s.046-.059.061-.092a.273.273 0 0 0 .022-.112c0-.052-.013-.099-.039-.142s-.062-.078-.11-.104a.337.337 0 0 0-.17-.04c-.068 0-.128.013-.178.04s-.09.063-.118.112a.345.345 0 0 0-.014.302.673.673 0 0 0 .105.163zm.106.129.288.338a.329.329 0 0 1-.209.074c-.046 0-.084-.009-.116-.027s-.055-.043-.072-.074a.22.22 0 0 1 .012-.219.337.337 0 0 1 .07-.074l.027-.019zm.051-.236-.015-.019c-.024-.031-.042-.06-.056-.088a.184.184 0 0 1-.005-.158.131.131 0 0 1 .047-.055.133.133 0 0 1 .076-.021c.043 0 .077.013.1.039s.036.054.036.085c0 .036-.008.066-.024.091s-.043.048-.08.073l-.079.053zm2.262.379c-.007.085-.031.16-.071.226s-.097.117-.17.155-.161.057-.265.057a.473.473 0 0 1-.38-.165c-.046-.053-.081-.117-.105-.193s-.036-.159-.036-.252v-.107c0-.093.012-.177.036-.252s.06-.139.107-.193c.046-.054.102-.095.166-.123s.138-.043.219-.043c.103 0 .19.019.261.057s.126.09.165.157c.04.067.064.144.073.23h-.222c-.006-.056-.019-.103-.039-.143s-.049-.07-.087-.091a.313.313 0 0 0-.151-.032c-.051 0-.095.009-.133.028s-.07.047-.095.083c-.025.037-.045.082-.058.136s-.019.114-.019.183v.109c0 .065.006.124.017.178s.03.098.053.136c.024.038.055.067.092.088s.082.031.134.031c.063 0 .114-.01.154-.03s.07-.049.09-.088a.408.408 0 0 0 .041-.143h.222zm1.233-.19v-.071c0-.098-.013-.185-.039-.262s-.062-.144-.109-.198c-.047-.055-.104-.097-.17-.125a.555.555 0 0 0-.436 0 .475.475 0 0 0-.17.125c-.047.054-.084.12-.11.198s-.039.164-.039.262v.071c0 .098.013.185.039.263s.064.144.112.198a.488.488 0 0 0 .388.168.484.484 0 0 0 .387-.168c.047-.054.084-.12.109-.198s.038-.165.038-.263zm-.223-.073v.073c0 .072-.007.136-.021.192s-.034.103-.06.141a.26.26 0 0 1-.23.114c-.049 0-.093-.009-.131-.028s-.072-.048-.099-.086c-.027-.038-.048-.086-.062-.141s-.021-.12-.021-.192v-.073c0-.072.007-.136.021-.191s.035-.102.061-.139c.027-.038.06-.066.099-.085s.082-.029.131-.029.093.01.132.029c.039.019.072.047.099.085s.048.084.061.139a.78.78 0 0 1 .021.191z" style="fill:var(--color4, #8e8f99)"/></symbol><symbol id="icon-icon-client-2" viewBox="0 0 61 32"><path fill="#8e8f99" d="M29.86 7.976c.084 0 .174.008.263.015l.026.002a8.36 8.36 0 0 1 1.288.194V7.146a7.762 7.762 0 0 0-1.329-.212 10.99 10.99 0 0 0-.537-.026h-.155c-.9.003-1.796.119-2.668.344-.993.248-1.946.635-2.831 1.151v10.326a11.48 11.48 0 0 1 2.698-1.051c.742-.189 1.5-.306 2.265-.348h.03a9.83 9.83 0 0 1 .387-.011v-1.058c-.993.013-1.981.144-2.944.391-.356.092-.7.192-1.023.303l-.368.125V9.029l.157-.076a10.303 10.303 0 0 1 3.857-.976c.146-.007.293-.011.438-.011h.166c.076.002.153.004.229.008h.05zm1.832 1.064c.231.018.47.026.712.026a11.398 11.398 0 0 0 2.805-.36c.939-.236 1.846-.59 2.697-1.052v10.142c-.885.516-1.838.903-2.831 1.151-.872.224-1.768.339-2.668.343a8.12 8.12 0 0 1-2.024-.239V8.843a8.518 8.518 0 0 0 1.309.196zm5.161.079-.368.124c-.338.114-.68.215-1.023.306-.999.257-2.026.388-3.057.392-.24 0-.461-.006-.674-.02l-.293-.019v8.283l.252.022c.234.02.475.03.718.03a9.727 9.727 0 0 0 2.407-.312 10.049 10.049 0 0 0 1.881-.676l.157-.076V9.119zM24.632 22.259a.537.537 0 0 0-.409-.165.614.614 0 0 0-.236.044.525.525 0 0 0-.303.306.595.595 0 0 0-.042.228v1.38a.655.655 0 0 0 .054.283.486.486 0 0 0 .328.283.794.794 0 0 0 .206.029.586.586 0 0 0 .571-.581v-.154h-.361v.123a.322.322 0 0 1-.021.123.242.242 0 0 1-.052.078.218.218 0 0 1-.075.04.275.275 0 0 1-.075.013.183.183 0 0 1-.17-.074.325.325 0 0 1-.048-.185v-1.286a.445.445 0 0 1 .044-.206.181.181 0 0 1 .176-.083c.031-.001.062.005.09.019s.052.034.071.059a.3.3 0 0 1 .06.185v.119h.357v-.141a.64.64 0 0 0-.164-.435zM26.774 22.243a.643.643 0 0 0-.41-.152.61.61 0 0 0-.405.152.58.58 0 0 0-.192.46v1.323a.645.645 0 0 0 .052.271.54.54 0 0 0 .14.185c.055.051.12.091.19.117.069.025.142.038.215.039s.146-.013.215-.039a.566.566 0 0 0 .383-.573v-1.323a.642.642 0 0 0-.052-.267.583.583 0 0 0-.136-.193zm-.168 1.784a.233.233 0 0 1-.072.192.266.266 0 0 1-.34 0 .241.241 0 0 1-.072-.192v-1.323a.233.233 0 0 1 .072-.192.266.266 0 0 1 .34 0 .241.241 0 0 1 .072.192v1.323zM29.588 24.618v-2.505h-.347l-.455 1.326h-.006l-.459-1.326h-.343v2.505h.358v-1.524h.006l.35 1.077h.178l.353-1.077h.006v1.524h.358zM31.621 22.289a.498.498 0 0 0-.202-.137.814.814 0 0 0-.259-.039h-.532v2.505h.357v-.978h.184a.654.654 0 0 0 .322-.068.52.52 0 0 0 .196-.191.614.614 0 0 0 .082-.218c.014-.094.02-.19.019-.285a1.436 1.436 0 0 0-.035-.358.526.526 0 0 0-.132-.23zm-.184.763a.325.325 0 0 1-.033.13.206.206 0 0 1-.092.088.362.362 0 0 1-.168.031h-.163v-.852h.184a.343.343 0 0 1 .161.031.208.208 0 0 1 .084.092c.02.044.03.091.031.14v.166c0 .058.004.118 0 .172h-.004zM33.312 22.113h-.293l-.552 2.505h.357l.105-.538h.487l.105.538h.357l-.566-2.505zm-.329 1.626.176-.908h.006l.175.908h-.357zM35.618 23.622h-.006l-.539-1.509h-.343v2.505h.357v-1.506h.007l.545 1.506h.336v-2.505h-.357v1.509zM37.799 22.113l-.287.996h-.007l-.287-.996h-.378l.49 1.446v1.059h.357v-1.059l.49-1.446h-.378zM23.636 25.325h.172v.483h.117v-.483h.171v-.099h-.46v.099zM25.082 25.226l-.225.582h.124l.048-.132h.232l.05.132h.127l-.231-.582h-.124zm-.018.352.079-.215.079.215h-.158zM26.512 25.593h.134v.075a.223.223 0 0 1-.138.049.145.145 0 0 1-.123-.056.241.241 0 0 1-.043-.152c0-.129.056-.194.167-.194a.123.123 0 0 1 .132.093l.115-.022c-.025-.114-.107-.171-.247-.171a.29.29 0 0 0-.203.075.28.28 0 0 0-.083.224.314.314 0 0 0 .075.218c.028.029.063.052.101.067s.079.021.12.018a.353.353 0 0 0 .247-.092v-.229h-.252v.098zM27.972 25.226h-.118v.582h.407v-.099h-.29v-.483zM29.206 25.226h-.118v.582h.118v-.582zM30.413 25.615l-.238-.388h-.114v.582h.109v-.38l.234.38h.117v-.582h-.108v.388zM31.504 25.552h.29v-.099h-.29v-.128h.312v-.099h-.43v.582h.442v-.099h-.324v-.157zM34.15 25.456h-.229v-.229h-.117v.582h.117v-.254h.229v.254h.117v-.582h-.117v.229zM35.247 25.552h.291v-.099h-.291v-.128h.313v-.099h-.43v.582h.441v-.099h-.324v-.157zM36.736 25.552c.101-.016.153-.069.153-.162a.14.14 0 0 0-.057-.13.333.333 0 0 0-.17-.034h-.247v.582h.117v-.243h.023a.153.153 0 0 1 .073.013.12.12 0 0 1 .041.043l.127.185h.14l-.071-.114a.402.402 0 0 0-.129-.14zm-.118-.081h-.086v-.146h.092c.04-.003.08.001.119.014.008.008.015.017.02.027s.007.022.006.033c0 .011-.004.022-.009.032s-.013.019-.022.025a.344.344 0 0 1-.119.014zM37.858 25.552h.289v-.099h-.289v-.128h.313v-.099h-.431v.582h.441v-.099h-.324v-.157z" style="fill:var(--color4, #8e8f99)"/></symbol><symbol id="icon-icon-client-3" viewBox="0 0 61 32"><path fill="#8e8f99" d="M25.022 23.718a.042.042 0 0 1 .031.012l.08.076a.65.65 0 0 1-.226.143.884.884 0 0 1-.32.051.871.871 0 0 1-.301-.048.622.622 0 0 1-.425-.613.616.616 0 0 1 .211-.478.742.742 0 0 1 .241-.136.953.953 0 0 1 .31-.048.85.85 0 0 1 .288.044c.079.029.152.07.216.121l-.067.081a.061.061 0 0 1-.017.015c-.008.005-.018.007-.027.006s-.02-.004-.029-.009l-.036-.021-.05-.027a.78.78 0 0 0-.067-.027.706.706 0 0 0-.433.006.463.463 0 0 0-.288.262.539.539 0 0 0-.041.213.553.553 0 0 0 .041.216.457.457 0 0 0 .278.259.603.603 0 0 0 .207.034.987.987 0 0 0 .122-.007.494.494 0 0 0 .265-.111.07.07 0 0 1 .038-.014zM27.34 23.338a.654.654 0 0 1-.054.267c-.033.077-.084.148-.151.207s-.148.105-.237.136a.993.993 0 0 1-.61 0 .708.708 0 0 1-.236-.136.607.607 0 0 1-.153-.209.687.687 0 0 1 0-.534.62.62 0 0 1 .389-.341.978.978 0 0 1 .61 0c.089.031.17.077.237.136a.62.62 0 0 1 .206.475zm-.21 0a.544.544 0 0 0-.038-.214.446.446 0 0 0-.277-.261.717.717 0 0 0-.444 0 .483.483 0 0 0-.17.101.424.424 0 0 0-.108.16.62.62 0 0 0 0 .429.449.449 0 0 0 .278.26.732.732 0 0 0 .444 0 .442.442 0 0 0 .277-.26.547.547 0 0 0 .038-.214zM28.922 23.563l.021.048.023-.048c.008-.015.016-.032.026-.047l.513-.797c.01-.014.019-.022.029-.025a.12.12 0 0 1 .042-.004h.152v1.296h-.18v-1.038l-.516.808c-.007.012-.017.022-.03.029s-.028.011-.044.011h-.029c-.016 0-.031-.004-.044-.011s-.024-.017-.03-.03l-.531-.813v1.04h-.174v-1.293h.152a.146.146 0 0 1 .042.004.057.057 0 0 1 .028.025l.524.798a.3.3 0 0 1 .026.046zM30.853 23.499v.485h-.201V22.69h.448a.999.999 0 0 1 .25.028.502.502 0 0 1 .177.081.322.322 0 0 1 .1.127.383.383 0 0 1 .034.166.362.362 0 0 1-.145.296.526.526 0 0 1-.178.086.892.892 0 0 1-.242.03l-.243-.003zm0-.139h.243a.548.548 0 0 0 .156-.02.337.337 0 0 0 .112-.056.247.247 0 0 0 .092-.195c.002-.036-.005-.072-.02-.105s-.04-.064-.07-.088a.435.435 0 0 0-.27-.069h-.243v.533zM33.551 23.986h-.159a.08.08 0 0 1-.044-.012.083.083 0 0 1-.026-.03l-.136-.313H32.5l-.142.313a.076.076 0 0 1-.025.029.079.079 0 0 1-.045.013h-.159l.602-1.296h.209l.61 1.296zm-.994-.481h.566l-.239-.527a.893.893 0 0 1-.045-.122l-.023.068c-.007.021-.015.039-.022.055l-.237.527zM34.418 22.696a.1.1 0 0 1 .03.023l.878.977V22.69h.18v1.296h-.1c-.014 0-.028-.002-.041-.008s-.023-.014-.032-.024l-.877-.976v1.008h-.18V22.69h.106c.012 0 .025.002.036.006zM36.985 23.47v.515h-.201v-.515l-.555-.78h.18a.07.07 0 0 1 .043.011c.011.008.02.018.027.029l.347.503a.68.68 0 0 1 .061.115l.026-.056a.5.5 0 0 1 .034-.059l.343-.507a.133.133 0 0 1 .026-.027.066.066 0 0 1 .043-.013h.182l-.556.784zM28.823 20.515c.087.009.176.017.265.024 1.354-.518 2.5-1.365 3.294-2.436s1.201-2.318 1.17-3.585l-1.493-1.275c.303 1.349.162 2.744-.41 4.029s-1.55 2.408-2.826 3.244z" style="fill:var(--color4, #8e8f99)"/><path fill="#8e8f99" d="m28.29 20.456.04.007c1.364-.833 2.403-1.997 2.984-3.341s.677-2.805.276-4.196l-2.126-1.816c.86 1.493 1.206 3.164.998 4.818s-.961 3.225-2.172 4.528zM35.5 16.015c-.361 1.393-1.238 2.648-2.501 3.581a8.02 8.02 0 0 1-1.188.729c1.028-.258 1.974-.715 2.763-1.335s1.401-1.386 1.789-2.24l-.862-.736z" style="fill:var(--color4, #8e8f99)"/><path fill="#8e8f99" d="m35.162 15.81-1.228-1.049c-.023 1.196-.421 2.364-1.152 3.384s-1.768 1.854-3.004 2.416h.006c.275 0 .551-.014.824-.042 1.155-.403 2.175-1.044 2.97-1.865s1.339-1.799 1.584-2.844zM28.468 10.344l-1.465-1.253c-1.309.432-2.435 1.192-3.231 2.18s-1.223 2.158-1.227 3.357c.005 1.325.527 2.611 1.483 3.654s2.293 1.784 3.797 2.105c1.343-1.398 2.13-3.126 2.245-4.932s-.446-3.597-1.604-5.111zM38.545 15.617c-.005-1.572-.739-3.079-2.04-4.19s-3.064-1.738-4.904-1.743a7.911 7.911 0 0 0-2.486.395l8.967 7.661a5.13 5.13 0 0 0 .464-2.123z" style="fill:var(--color4, #8e8f99)"/></symbol><symbol id="icon-icon-client-4" viewBox="0 0 61 32"><path fill="#8e8f99" d="M20.392 13.643h-.001c-.867 0-1.571.634-1.571 1.416v.001c0 .782.703 1.416 1.571 1.416h.001c.867 0 1.571-.634 1.571-1.416v-.001c0-.782-.703-1.416-1.571-1.416zM31.986 13.19c-.002-1.086-.482-2.128-1.334-2.896s-2.007-1.201-3.212-1.203c-1.205.002-2.361.434-3.213 1.203s-1.332 1.81-1.335 2.896v5.991s9.092-.913 9.093-5.99v-.001zM15.636 21.147c.002.756.336 1.48.929 2.015s1.396.836 2.234.838c.838-.002 1.641-.303 2.234-.838s.927-1.259.929-2.014V16.98s-6.327.636-6.327 4.167zm3.164.747c-.164 0-.324-.044-.46-.126s-.242-.199-.305-.335-.079-.287-.047-.432c.032-.145.111-.278.227-.382s.263-.176.424-.204c.161-.029.327-.014.479.043s.281.152.372.275a.696.696 0 0 1-.101.945c-.077.07-.168.125-.269.163s-.209.057-.318.057v-.003zM24.585 20.551v1.551h-.32v-1.551h.32zm.618.663v.249h-.705v-.249h.705zm.075-.663v.25h-.78v-.25h.78zm1.459.739v.074c0 .118-.016.224-.048.317s-.077.174-.135.24c-.058.065-.128.115-.209.15s-.169.052-.267.052c-.097 0-.186-.017-.267-.052s-.15-.085-.209-.15c-.059-.066-.105-.146-.137-.24s-.048-.2-.048-.317v-.074c0-.119.016-.224.048-.317s.077-.174.135-.24c.059-.066.129-.116.209-.151s.17-.052.267-.052c.098 0 .187.017.267.052s.151.085.209.151c.059.066.104.146.136.24s.049.199.049.317zm-.323.074v-.076c0-.082-.007-.155-.022-.217s-.037-.115-.066-.158-.065-.075-.107-.096c-.042-.022-.09-.033-.144-.033s-.102.011-.144.033c-.041.021-.076.053-.105.096s-.05.095-.065.158a.941.941 0 0 0-.022.217v.076c0 .082.007.154.022.217s.037.115.066.159a.29.29 0 0 0 .251.13.278.278 0 0 0 .249-.13c.028-.043.05-.096.065-.159s.022-.136.022-.217zm1.361.332c0-.028-.004-.053-.013-.075s-.023-.043-.045-.062c-.022-.019-.053-.038-.093-.056s-.091-.038-.154-.058c-.07-.023-.137-.048-.2-.077s-.118-.061-.166-.099c-.048-.038-.085-.083-.113-.133s-.04-.109-.04-.176c0-.065.014-.123.043-.176s.068-.099.119-.136c.051-.038.111-.068.181-.088s.147-.031.231-.031c.114 0 .214.021.299.062s.151.098.198.169a.433.433 0 0 1 .071.246h-.317c0-.045-.01-.085-.029-.119s-.047-.062-.085-.082a.303.303 0 0 0-.143-.03c-.055 0-.102.009-.138.026s-.065.039-.083.067a.17.17 0 0 0-.028.094c0 .026.006.05.019.071s.033.041.06.06.059.036.097.052c.038.016.083.032.133.048.084.026.159.054.223.086s.119.068.162.108c.043.04.076.085.098.135s.033.108.033.172a.368.368 0 0 1-.153.316c-.05.037-.109.065-.178.084a.869.869 0 0 1-.458-.001.671.671 0 0 1-.203-.093c-.06-.041-.109-.094-.145-.158s-.054-.14-.054-.227h.321c0 .048.007.089.022.122s.036.06.063.081c.028.021.06.035.098.045a.496.496 0 0 0 .262-.009.169.169 0 0 0 .107-.159zm1.23-1.145v1.551h-.319v-1.551h.319zm.477 0v.25h-1.266v-.25h1.266zm1.223 1.302v.249h-.826v-.249h.826zm-.721-1.302v1.551h-.32v-1.551h.32zm.614.632v.243h-.718v-.243h.718zm.106-.632v.25h-.825v-.25h.825zm.188 0h.578c.119 0 .221.018.306.053s.152.088.198.158.069.155.069.257c0 .083-.014.154-.043.214s-.067.108-.118.148a.627.627 0 0 1-.178.094l-.101.053H31.1l-.002-.249h.374c.056 0 .103-.01.14-.03s.065-.048.083-.083a.258.258 0 0 0 .029-.124c0-.05-.009-.093-.028-.129s-.047-.064-.084-.083-.085-.029-.142-.029h-.259v1.301h-.32v-1.551zm.867 1.551-.354-.691.338-.002.358.679v.015h-.342zm1.678-.553h-.395V21.3h.395c.061 0 .111-.01.149-.03s.066-.049.084-.085a.314.314 0 0 0 0-.251c-.018-.04-.046-.072-.084-.096s-.088-.036-.149-.036h-.284v1.301h-.32v-1.551h.604c.121 0 .225.022.312.066a.474.474 0 0 1 .269.443c0 .1-.023.187-.069.26s-.113.13-.2.169a.742.742 0 0 1-.312.06zm1.843.304v.249h-.826v-.249h.826zm-.721-1.302v1.551h-.32v-1.551h.32zm.613.632v.243h-.718v-.243h.718zm.107-.632v.25h-.825v-.25h.825zm.902 0v1.551h-.319v-1.551h.319zm.478 0v.25h-1.266v-.25h1.266zm1.222 1.302v.249h-.825v-.249h.825zm-.721-1.302v1.551h-.32v-1.551h.32zm.614.632v.243h-.718v-.243h.718zm.106-.632v.25h-.824v-.25h.824zm.188 0h.579c.119 0 .22.018.306.053s.152.088.198.158.069.155.069.257c0 .083-.014.154-.043.214s-.067.108-.118.148a.64.64 0 0 1-.178.094l-.101.053h-.503l-.002-.249h.374c.056 0 .103-.01.139-.03s.065-.048.083-.083a.258.258 0 0 0 .029-.124c0-.05-.009-.093-.028-.129s-.047-.064-.084-.083a.31.31 0 0 0-.141-.029h-.259v1.301h-.32v-1.551zm.867 1.551-.354-.691.338-.002.358.679v.015h-.342zm1.338-.406a.197.197 0 0 0-.013-.075c-.008-.023-.023-.043-.045-.062s-.053-.038-.093-.056a1.434 1.434 0 0 0-.154-.058c-.071-.023-.137-.048-.2-.077s-.118-.061-.166-.099c-.048-.038-.085-.083-.113-.133s-.04-.109-.04-.176c0-.065.014-.123.043-.176s.068-.099.119-.136a.565.565 0 0 1 .181-.088.812.812 0 0 1 .53.031.484.484 0 0 1 .198.169.433.433 0 0 1 .071.246h-.317a.23.23 0 0 0-.029-.119c-.018-.035-.047-.062-.085-.082s-.085-.03-.143-.03c-.055 0-.101.009-.139.026s-.064.039-.083.067a.162.162 0 0 0-.028.094c0 .026.006.05.019.071s.033.041.06.06c.026.018.059.036.097.052s.083.032.133.048c.085.026.159.054.223.086s.119.068.162.108.076.085.098.135c.022.05.033.108.033.172a.368.368 0 0 1-.153.316c-.049.037-.109.065-.178.084a.869.869 0 0 1-.458-.001A.671.671 0 0 1 39.6 22c-.06-.041-.109-.094-.145-.158s-.054-.14-.054-.227h.321c0 .048.007.089.022.122s.036.06.063.081c.028.021.06.035.098.045a.494.494 0 0 0 .261-.009.17.17 0 0 0 .107-.159z" style="fill:var(--color4, #8e8f99)"/></symbol><symbol id="icon-icon-client-5" viewBox="0 0 61 32"><path fill="#8e8f99" d="M21.379 21.954a.509.509 0 0 1 .134.352c.005.083-.012.167-.048.244s-.091.146-.16.201a.967.967 0 0 1-.605.162h-1.064v-2.23h1.042c.206-.012.41.04.577.148.067.051.121.115.156.187s.051.151.046.23a.484.484 0 0 1-.121.341.576.576 0 0 1-.317.174.62.62 0 0 1 .359.191zm-1.248-.337h.445a.457.457 0 0 0 .283-.074c.033-.027.059-.061.076-.099s.023-.078.02-.119a.258.258 0 0 0-.094-.218.465.465 0 0 0-.292-.075h-.438v.585zm.772.855c.036-.028.064-.063.082-.102s.026-.082.023-.124c.003-.043-.006-.086-.024-.126s-.047-.075-.083-.103a.497.497 0 0 0-.302-.081h-.467v.613h.473a.51.51 0 0 0 .299-.077zM23.509 22.912l-.58-.872h-.218v.872h-.499v-2.23h.944a.998.998 0 0 1 .657.19c.132.121.212.28.224.45s-.042.337-.154.473a.796.796 0 0 1-.45.227l.617.891h-.542zm-.798-1.175h.408c.283 0 .425-.113.425-.338.003-.046-.005-.092-.023-.135s-.046-.082-.081-.115a.477.477 0 0 0-.321-.09h-.413l.005.679zM26.234 22.464h-.993l-.175.449h-.523l.912-2.205h.565l.909 2.205h-.523l-.172-.449zm-.133-.338-.363-.941-.363.941h.726zM29.645 22.913h-.495l-1.11-1.516v1.516h-.494v-2.23h.494l1.11 1.525v-1.525h.495v2.23zM32.469 22.379a1.024 1.024 0 0 1-.448.393 1.601 1.601 0 0 1-.696.141h-.881v-2.23h.881c.241-.006.48.041.696.137.189.086.346.222.448.389a1.19 1.19 0 0 1 0 1.17zm-.566-.054c.141-.148.219-.337.219-.532s-.078-.384-.219-.532a.928.928 0 0 0-.62-.19h-.344v1.443h.344a.919.919 0 0 0 .62-.19zM26.543 8.279s6.388 2.171 6.252 5.313v5.314s-6.383-2.172-6.25-5.314l-.002-5.313zM38.487 17.662a9.378 9.378 0 0 1 4.059-1.346v-1.663c-1.679.582-3.102 1.638-4.059 3.01z" style="fill:var(--color4, #8e8f99)"/><path fill="#8e8f99" d="M37.762 18.163c.987-1.79 2.699-3.171 4.783-3.86V9.51s-9.097 3.093-8.905 7.567v7.566s.405-.138 1.043-.398c0-.242 0-.486.029-.731.188-2.077 1.285-4.002 3.05-5.351z" style="fill:var(--color4, #8e8f99)"/><path fill="#8e8f99" d="M36.897 20.973a7.108 7.108 0 0 1 .319-1.549c-1.099 1.165-1.764 2.611-1.902 4.134a6.23 6.23 0 0 0-.024.436 27.346 27.346 0 0 0 1.75-.83 7.081 7.081 0 0 1-.142-2.191zM37.259 21.001c-.06.663-.023 1.33.113 1.984 2.485-1.339 5.278-3.408 5.171-5.908v-.218c-1.776.179-3.437.878-4.729 1.989a6.853 6.853 0 0 0-.554 2.153z" style="fill:var(--color4, #8e8f99)"/></symbol><symbol id="icon-icon-client-6" viewBox="0 0 61 32"><path fill="#8e8f99" d="M31.102 15.798a1.072 1.072 0 0 1-.22-.724v-1.05c0-.322.073-.567.219-.734s.397-.251.753-.25c.334 0 .572.071.712.214a.866.866 0 0 1 .21.628v.247h-.598v-.25a1.34 1.34 0 0 0-.017-.245.24.24 0 0 0-.085-.145.346.346 0 0 0-.217-.057.368.368 0 0 0-.228.06.28.28 0 0 0-.099.16 1.265 1.265 0 0 0-.024.26v1.275a.654.654 0 0 0 .077.358c.03.038.071.068.119.087s.102.026.154.02a.325.325 0 0 0 .212-.058.255.255 0 0 0 .089-.155c.014-.085.02-.17.019-.255v-.259h.598v.236a.958.958 0 0 1-.207.66c-.137.156-.371.234-.716.234s-.604-.083-.752-.256zM33.591 15.808c-.151-.163-.227-.402-.227-.717v-1.105c0-.312.076-.548.227-.708s.404-.24.758-.239c.352 0 .603.08.754.239s.228.396.228.708v1.105c0 .312-.077.551-.23.716s-.404.247-.752.247-.605-.083-.758-.246zm1.037-.265a.617.617 0 0 0 .072-.327v-1.353a.597.597 0 0 0-.071-.321c-.03-.039-.073-.069-.122-.088s-.104-.025-.158-.019c-.054-.006-.108 0-.158.019s-.092.049-.123.088a.593.593 0 0 0-.072.32v1.359a.599.599 0 0 0 .072.327c.035.034.078.062.126.081a.421.421 0 0 0 .308 0 .384.384 0 0 0 .126-.081v-.006zM36.05 13.071h.644l.484 2.038.495-2.038h.627l.063 2.942H37.9l-.049-2.045-.478 2.045h-.371l-.495-2.052-.046 2.052h-.468l.058-2.942zM39.085 13.071h1.003c.577 0 .867.278.867.835 0 .533-.304.8-.912.799h-.342v1.308h-.619l.004-2.942zm.856 1.258c.061.007.123.002.182-.014s.113-.043.158-.079a.476.476 0 0 0 .089-.332.96.96 0 0 0-.029-.267c-.009-.029-.024-.057-.046-.081s-.048-.044-.078-.059a.631.631 0 0 0-.276-.047h-.24v.879h.24zM41.847 13.071h.665l.682 2.942h-.577l-.135-.678h-.593l-.139.678h-.585l.682-2.942zm.568 1.923-.231-1.235-.232 1.235h.463zM43.745 13.071h.433l.829 1.678v-1.678h.514v2.942h-.412l-.835-1.752v1.752h-.531l.001-2.942zM46.725 14.892l-.689-1.816h.581l.421 1.167.395-1.167h.568l-.681 1.816v1.122h-.594v-1.122zM32.057 17.299v.154h-.505v1.195h-.212v-1.195h-.508v-.154h1.224zM33.641 18.649h-.163a.073.073 0 0 1-.046-.013.073.073 0 0 1-.027-.031l-.146-.32h-.701l-.146.32a.09.09 0 0 1-.022.036.073.073 0 0 1-.046.013h-.163l.619-1.349h.215l.626 1.344zm-1.025-.501h.584l-.248-.549a1.018 1.018 0 0 1-.046-.127l-.024.072-.022.057-.245.548zM34.708 18.516a.659.659 0 0 0 .215-.016.692.692 0 0 0 .172-.058v-.303h-.248c-.006 0-.012 0-.018-.002s-.011-.005-.015-.008-.007-.007-.009-.011-.003-.009-.003-.014V18h.48v.517a.907.907 0 0 1-.261.11 1.143 1.143 0 0 1-.155.028c-.06.006-.12.009-.181.009a.936.936 0 0 1-.312-.05.758.758 0 0 1-.248-.141.66.66 0 0 1-.16-.214.678.678 0 0 1-.057-.28.624.624 0 0 1 .216-.496.746.746 0 0 1 .248-.14 1.06 1.06 0 0 1 .332-.05c.058 0 .115.004.172.012a.805.805 0 0 1 .379.157l-.059.083c-.005.008-.012.014-.02.018s-.018.007-.028.007a.07.07 0 0 1-.038-.011.936.936 0 0 1-.061-.032.735.735 0 0 0-.354-.078.738.738 0 0 0-.239.037.485.485 0 0 0-.297.275.634.634 0 0 0 0 .45.53.53 0 0 0 .305.277.722.722 0 0 0 .245.027zM36.681 18.495h.676v.154h-.883V17.3h.212l-.005 1.195zM38.061 18.649h-.212V17.3h.212v1.349zM38.848 17.306a.11.11 0 0 1 .032.025l.905 1.017a.384.384 0 0 1 0-.048v-1.006h.184v1.355h-.107a.102.102 0 0 1-.046-.008.106.106 0 0 1-.033-.026l-.904-1.016v1.05h-.177V17.3h.11c.012 0 .024.002.035.006zM41.529 17.299v.148h-.751v.445h.608v.143h-.608v.46h.751v.148h-.968v-1.346h.968zM19.344 8.967l9.401 2.303v8.071l-9.401-2.302V8.967zm-.603-.688v9.152l10.605 2.599v-9.151l-10.605-2.6z" style="fill:var(--color4, #8e8f99)"/><path fill="#8e8f99" d="m24.425 24.279-10.607-2.601v-9.151l10.607 2.6v9.152zM18.917 8.863l9.278 2.274-3.946 3.406-9.279-2.276 3.947-3.405zm-.176-.584-4.923 4.248 10.607 2.6 4.921-4.248-10.605-2.6zM25.021 23.764l4.325-3.733-4.325-1.061v4.793z" style="fill:var(--color4, #8e8f99)"/></symbol><symbol id="icon-icon-facebook" viewBox="0 0 32 32"><path fill="#4d5ae5" d="M32 16c0 4.418-1.791 8.418-4.686 11.314S20.419 32 16 32c-4.418 0-8.418-1.791-11.314-4.686S0 20.419 0 16c0-4.418 1.791-8.418 4.686-11.314S11.581 0 16 0c4.418 0 8.418 1.791 11.314 4.686S32 11.581 32 16z" style="fill:var(--color1, #4d5ae5)"/><path fill="#f4f4fd" d="M18.132 11.725h1.169V9.69a15.04 15.04 0 0 0-1.702-.09c-1.685 0-2.839 1.06-2.839 3.007V14.4h-1.859v2.275h1.859V22.4h2.279v-5.724h1.784l.283-2.275h-2.068v-1.567c0-.658.178-1.108 1.094-1.108z" style="fill:var(--color2, #f4f4fd)"/></symbol><symbol id="icon-icon-instagram" viewBox="0 0 32 32"><path fill="#4d5ae5" d="M32 16c0 4.418-1.791 8.418-4.686 11.314S20.419 32 16 32c-4.418 0-8.418-1.791-11.314-4.686S0 20.419 0 16c0-4.418 1.791-8.418 4.686-11.314S11.581 0 16 0c4.418 0 8.418 1.791 11.314 4.686S32 11.581 32 16z" style="fill:var(--color1, #4d5ae5)"/><path fill="#f4f4fd" d="M22.387 13.363c-.03-.68-.14-1.148-.298-1.553a3.136 3.136 0 0 0-.74-1.135 3.153 3.153 0 0 0-1.133-.738c-.408-.158-.873-.268-1.553-.298-.685-.032-.903-.04-2.641-.04s-1.955.008-2.638.038c-.68.03-1.148.14-1.553.298-.43.162-.815.413-1.135.74-.325.32-.578.708-.738 1.133-.158.408-.268.873-.298 1.553-.032.685-.04.903-.04 2.641s.008 1.955.038 2.638c.03.68.14 1.148.298 1.553.162.43.415.815.74 1.135.32.325.708.578 1.133.738.408.158.873.268 1.553.298.683.03.9.038 2.638.038s1.955-.007 2.638-.038c.68-.03 1.148-.14 1.553-.298a3.278 3.278 0 0 0 1.873-1.873c.157-.408.268-.873.298-1.553.03-.683.038-.9.038-2.638s-.003-1.955-.033-2.638zm-1.152 5.226c-.028.625-.133.963-.22 1.188-.215.558-.658 1-1.215 1.215-.225.088-.565.193-1.188.22-.675.03-.878.037-2.585.037s-1.913-.007-2.586-.037c-.625-.027-.963-.132-1.188-.22a1.966 1.966 0 0 1-.735-.478 1.998 1.998 0 0 1-.478-.735c-.088-.225-.193-.565-.22-1.188-.03-.675-.038-.878-.038-2.586s.007-1.913.038-2.586c.027-.625.132-.963.22-1.188.103-.278.265-.53.48-.735a1.99 1.99 0 0 1 .735-.478c.225-.087.565-.192 1.188-.22.675-.03.878-.038 2.586-.038 1.71 0 1.913.008 2.586.038.625.028.963.133 1.188.22.277.102.53.265.735.478.212.208.375.458.478.735.088.225.192.565.22 1.188.03.675.038.878.038 2.586s-.008 1.908-.038 2.583z" style="fill:var(--color2, #f4f4fd)"/><path fill="#f4f4fd" d="M16.024 12.713a3.29 3.29 0 0 0 0 6.576 3.29 3.29 0 0 0 0-6.576zm0 5.421a2.133 2.133 0 1 1 0-4.266 2.133 2.133 0 0 1 0 4.266zM20.21 12.583a.768.768 0 1 1-1.536 0 .768.768 0 0 1 1.536 0z" style="fill:var(--color2, #f4f4fd)"/></symbol><symbol id="icon-icon-linkedin" viewBox="0 0 32 32"><path fill="#4d5ae5" d="M32 16c0 4.418-1.791 8.418-4.686 11.314S20.419 32 16 32c-4.418 0-8.418-1.791-11.314-4.686S0 20.419 0 16c0-4.418 1.791-8.418 4.686-11.314S11.581 0 16 0c4.418 0 8.418 1.791 11.314 4.686S32 11.581 32 16z" style="fill:var(--color1, #4d5ae5)"/><path fill="#f4f4fd" d="M22.397 22.4v-.001h.003v-4.694c0-2.297-.494-4.066-3.179-4.066-1.291 0-2.157.708-2.51 1.38h-.037v-1.165h-2.546V22.4h2.651v-4.231c0-1.114.211-2.192 1.591-2.192 1.36 0 1.38 1.272 1.38 2.263v4.161h2.648zM9.811 13.854h2.654V22.4H9.811v-8.546zM11.137 9.6c-.849 0-1.537.688-1.537 1.537s.688 1.551 1.537 1.551 1.537-.703 1.537-1.551S11.985 9.6 11.137 9.6z" style="fill:var(--color2, #f4f4fd)"/></symbol><symbol id="icon-icon-twitter" viewBox="0 0 32 32"><path fill="#4d5ae5" d="M32 16c0 4.418-1.791 8.418-4.686 11.314S20.419 32 16 32c-4.418 0-8.418-1.791-11.314-4.686S0 20.419 0 16c0-4.418 1.791-8.418 4.686-11.314S11.581 0 16 0c4.418 0 8.418 1.791 11.314 4.686S32 11.581 32 16z" style="fill:var(--color1, #4d5ae5)"/><path fill="#f4f4fd" d="M22.4 12.031a5.455 5.455 0 0 1-1.512.414 2.608 2.608 0 0 0 1.154-1.45 5.245 5.245 0 0 1-1.664.635 2.623 2.623 0 0 0-4.539 1.795c0 .208.018.408.061.598a7.426 7.426 0 0 1-5.409-2.745 2.628 2.628 0 0 0 .807 3.507 2.591 2.591 0 0 1-1.186-.323v.029c0 1.275.91 2.334 2.102 2.578a2.636 2.636 0 0 1-.688.086c-.168 0-.338-.01-.497-.045a2.65 2.65 0 0 0 2.452 1.828 5.275 5.275 0 0 1-3.882 1.083 7.384 7.384 0 0 0 4.026 1.178c4.829 0 7.469-4 7.469-7.467a6.24 6.24 0 0 0-.01-.339c.521-.37.958-.831 1.315-1.362z" style="fill:var(--color2, #f4f4fd)"/></symbol><symbol id="icon-close" viewBox="0 0 32 32"><path fill="#e7e9fc" d="M32 16c0 8.837-7.163 16-16 16S0 24.837 0 16 7.163 0 16 0s16 7.163 16 16z" style="fill:var(--color6, #e7e9fc)"/><path fill="none" stroke="#000" stroke-width="1.333" d="M31.333 16c0 8.468-6.865 15.333-15.333 15.333S.667 24.468.667 16 7.532.667 16 .667 31.333 7.532 31.333 16z" style="stroke:var(--color5, #000)"/><path fill="#2e2f42" d="m21.333 11.741-1.074-1.074L16 14.926l-4.259-4.259-1.074 1.074L14.926 16l-4.259 4.259 1.074 1.074L16 17.074l4.259 4.259 1.074-1.074L17.074 16l4.259-4.259z" style="fill:var(--color3, #2e2f42)"/></symbol><symbol id="icon-button-send" viewBox="0 0 32 32"><path fill="#fff" d="m32 2.667-32 15 10.227 3.156L26 8.5 14.002 21.988l.01.003-.012-.003v7.345l5.735-5.576L27 25.999l5-23.333z" style="fill:var(--color7, #fff)"/></symbol><symbol id="icon-checkbox-checked" viewBox="0 0 32 32"><path fill="#404bbf" d="M4 1h24a3 3 0 0 1 3 3v24a3 3 0 0 1-3 3H4a3 3 0 0 1-3-3V4a3 3 0 0 1 3-3z" style="fill:var(--color8, #404bbf)"/><path fill="#f4f4fd" d="M22.891 8.51a1.832 1.832 0 0 1 2.558.02 1.855 1.855 0 0 1 .068 2.571L15.728 23.41a1.845 1.845 0 0 1-1.314.591 1.83 1.83 0 0 1-1.336-.542l-6.492-6.527a1.863 1.863 0 0 1-.451-2.046 1.85 1.85 0 0 1 1.017-1.022 1.823 1.823 0 0 1 1.438.026c.225.101.429.247.597.429l5.137 5.163 8.521-10.915a.628.628 0 0 1 .049-.054h-.002z" style="fill:var(--color2, #f4f4fd)"/><path fill="none" stroke="#404bbf" stroke-width="2" d="M4 1h24a3 3 0 0 1 3 3v24a3 3 0 0 1-3 3H4a3 3 0 0 1-3-3V4a3 3 0 0 1 3-3z" style="stroke:var(--color8, #404bbf)"/></symbol><symbol id="icon-checkbox" viewBox="0 0 32 32"><path stroke-width="2" d="M4 1h24a3 3 0 0 1 3 3v24a3 3 0 0 1-3 3H4a3 3 0 0 1-3-3V4a3 3 0 0 1 3-3z"/></symbol><symbol id="icon-email" viewBox="0 0 24 32"><path d="M20 8H4c-1.1 0-1.99.9-1.99 2L2 22c0 1.1.9 2 2 2h16c1.1 0 2-.9 2-2V10c0-1.1-.9-2-2-2zm-.4 4.25-7.07 4.42c-.32.2-.74.2-1.06 0L4.4 12.25a.85.85 0 1 1 .9-1.44L12 15l6.7-4.19a.85.85 0 1 1 .9 1.44z"/></symbol><symbol id="icon-person" viewBox="0 0 32 32"><path fill="#4d5ae5" d="M16 16c2.947 0 5.333-2.387 5.333-5.333S18.946 5.334 16 5.334c-2.947 0-5.333 2.387-5.333 5.333S13.054 16 16 16zm0 2.667c-3.56 0-10.667 1.787-10.667 5.333v1.333c0 .733.6 1.333 1.333 1.333h18.667c.733 0 1.333-.6 1.333-1.333V24c0-3.547-7.107-5.333-10.667-5.333z" style="fill:var(--color1, #4d5ae5)"/></symbol><symbol id="icon-phone" viewBox="0 0 24 32"><path fill="#2e2f42" d="M0 0h24v32H0V0z" style="fill:var(--color9, #2e2f42)"/><path fill="#fff" d="M-741.333-378.667h1920v896h-1920v-896z" style="fill:var(--color7, #fff)"/><path d="M-741.333-282.667h1920v800h-1920v-800z" style="fill:var(--color5, #000)"/><path fill="#2e2f42" d="M-741.333-282.667h1920v800h-1920v-800z" opacity=".7" style="fill:var(--color3, #2e2f42)"/><path fill="#fff" d="M-70.289 35.469V44h-28.255v-8.531h28.255zM-94.971-9.083V44h-10.938V-9.083h10.938zm21 21.619v8.312h-24.573v-8.312h24.573zm3.646-21.619v8.568h-28.219v-8.568h28.219zM-50.348 44h-10.573V1.052c0-2.99.583-5.505 1.75-7.547a11.442 11.442 0 0 1 4.995-4.667c2.163-1.069 4.727-1.604 7.693-1.604.972 0 1.908.073 2.807.219.899.122 1.774.28 2.625.474l-.109 7.911c-.462-.122-.948-.207-1.458-.255s-1.106-.073-1.787-.073c-1.264 0-2.345.219-3.245.656-.875.413-1.543 1.033-2.005 1.859s-.693 1.835-.693 3.026v42.948zm7.875-39.448v7.438h-24.318V4.552h24.318zM-22.094 44h-10.573V1.052c0-2.99.583-5.505 1.75-7.547a11.442 11.442 0 0 1 4.995-4.667c2.163-1.069 4.727-1.604 7.693-1.604.972 0 1.908.073 2.807.219.899.122 1.774.28 2.625.474l-.109 7.911c-.462-.122-.948-.207-1.458-.255s-1.106-.073-1.786-.073c-1.264 0-2.346.219-3.245.656-.875.413-1.543 1.033-2.005 1.859s-.693 1.835-.693 3.026v42.948zm7.875-39.448v7.438h-24.318V4.552h24.318zm24.28 40.177c-3.063 0-5.809-.486-8.24-1.458-2.431-.997-4.497-2.37-6.198-4.12a18.323 18.323 0 0 1-3.865-6.089c-.899-2.333-1.349-4.813-1.349-7.437v-1.458c0-2.99.425-5.724 1.276-8.203s2.066-4.63 3.646-6.453c1.604-1.823 3.549-3.22 5.833-4.193 2.285-.997 4.861-1.495 7.729-1.495 2.795 0 5.274.462 7.437 1.385s3.974 2.236 5.432 3.937c1.483 1.701 2.601 3.743 3.354 6.125.753 2.358 1.13 4.983 1.13 7.875v4.375H-5.108v-7h21.037v-.802c0-1.458-.267-2.759-.802-3.901-.51-1.167-1.288-2.09-2.333-2.771s-2.382-1.021-4.01-1.021c-1.385 0-2.576.304-3.573.911S3.4 14.394 2.768 15.488c-.608 1.094-1.069 2.382-1.385 3.865-.292 1.458-.438 3.063-.438 4.813v1.458c0 1.58.219 3.038.656 4.375.462 1.337 1.106 2.491 1.932 3.464a8.817 8.817 0 0 0 3.063 2.26c1.215.535 2.589.802 4.12.802 1.896 0 3.658-.365 5.287-1.094 1.653-.753 3.075-1.884 4.266-3.391l5.104 5.542c-.826 1.191-1.957 2.333-3.391 3.427-1.41 1.094-3.111 1.993-5.104 2.698-1.993.681-4.266 1.021-6.818 1.021zm39.957-8.203c1.288 0 2.431-.243 3.427-.729.997-.511 1.774-1.215 2.333-2.115.583-.924.887-2.005.911-3.245h9.88c-.024 2.771-.766 5.238-2.224 7.401-1.458 2.139-3.415 3.828-5.87 5.068-2.455 1.215-5.201 1.823-8.24 1.823-3.062 0-5.736-.51-8.021-1.531-2.26-1.021-4.144-2.431-5.651-4.229-1.507-1.823-2.637-3.938-3.391-6.344-.753-2.431-1.13-5.031-1.13-7.802v-1.057c0-2.795.377-5.396 1.13-7.802.753-2.431 1.884-4.545 3.391-6.344 1.507-1.823 3.391-3.245 5.651-4.266s4.91-1.531 7.948-1.531c3.233 0 6.064.62 8.495 1.859 2.455 1.24 4.375 3.014 5.76 5.323 1.41 2.285 2.127 4.995 2.151 8.13h-9.88c-.024-1.313-.304-2.503-.839-3.573a6.05 6.05 0 0 0-2.26-2.552c-.972-.656-2.175-.984-3.609-.984-1.531 0-2.783.328-3.755.984-.972.632-1.726 1.507-2.26 2.625-.535 1.094-.911 2.345-1.13 3.755a31.392 31.392 0 0 0-.292 4.375v1.057c0 1.531.097 3.002.292 4.411s.559 2.661 1.094 3.755c.559 1.094 1.325 1.957 2.297 2.589s2.236.948 3.792.948zM93.475 4.552v7.438H70.506V4.552h22.969zM76.193-5.182h10.5v37.297c0 1.142.146 2.017.437 2.625.316.608.778 1.033 1.385 1.276.608.219 1.373.328 2.297.328.656 0 1.24-.024 1.75-.073.535-.073.984-.146 1.349-.219l.036 7.729c-.899.292-1.871.523-2.917.693s-2.2.255-3.463.255c-2.309 0-4.326-.377-6.052-1.13-1.701-.778-3.014-2.017-3.937-3.719s-1.385-3.938-1.385-6.708V-5.182zm35.837 9.734V44h-10.536V4.552h10.536zM100.838-5.729c0-1.531.535-2.795 1.604-3.792s2.503-1.495 4.302-1.495c1.774 0 3.196.498 4.266 1.495 1.094.997 1.641 2.26 1.641 3.792s-.547 2.795-1.641 3.792c-1.069.997-2.491 1.495-4.266 1.495-1.799 0-3.233-.498-4.302-1.495s-1.604-2.26-1.604-3.792zm34.779 42.073 8.751-31.792h10.973L142.034 44h-6.636l.219-7.656zm-6.015-31.792 8.786 31.828.183 7.62h-6.672L118.592 4.552h11.01zm49.582 40.177c-3.063 0-5.809-.486-8.24-1.458-2.431-.997-4.496-2.37-6.197-4.12a18.323 18.323 0 0 1-3.865-6.089c-.899-2.333-1.348-4.813-1.348-7.437v-1.458c0-2.99.425-5.724 1.276-8.203s2.065-4.63 3.645-6.453c1.604-1.823 3.548-3.22 5.833-4.193 2.284-.997 4.861-1.495 7.729-1.495 2.795 0 5.275.462 7.437 1.385s3.973 2.236 5.432 3.937c1.483 1.701 2.601 3.743 3.355 6.125.753 2.358 1.129 4.983 1.129 7.875v4.375h-31.353v-7h21.036v-.802c0-1.458-.267-2.759-.801-3.901a6.203 6.203 0 0 0-2.333-2.771c-1.045-.681-2.383-1.021-4.011-1.021-1.385 0-2.577.304-3.573.911s-1.811 1.458-2.443 2.552c-.608 1.094-1.069 2.382-1.385 3.865-.292 1.458-.437 3.063-.437 4.813v1.458c0 1.58.219 3.038.656 4.375.461 1.337 1.105 2.491 1.932 3.464a8.817 8.817 0 0 0 3.063 2.26c1.216.535 2.589.802 4.12.802 1.896 0 3.657-.365 5.287-1.094 1.652-.753 3.075-1.884 4.265-3.391l5.104 5.542c-.827 1.191-1.956 2.333-3.391 3.427-1.409 1.094-3.111 1.993-5.104 2.698-1.993.681-4.265 1.021-6.817 1.021zm72.039-14.62c0-.948-.147-1.799-.437-2.552-.268-.778-.779-1.483-1.532-2.115-.753-.656-1.811-1.3-3.172-1.932-1.36-.632-3.123-1.288-5.285-1.969a66.943 66.943 0 0 1-6.855-2.625c-2.139-.972-4.035-2.102-5.688-3.391-1.628-1.312-2.916-2.832-3.864-4.557-.924-1.726-1.385-3.731-1.385-6.016 0-2.212.485-4.217 1.459-6.016.972-1.823 2.333-3.378 4.083-4.667 1.751-1.313 3.816-2.321 6.197-3.026 2.407-.705 5.044-1.057 7.912-1.057 3.913 0 7.328.705 10.245 2.115 2.916 1.41 5.176 3.342 6.781 5.797 1.628 2.455 2.443 5.262 2.443 8.422H251.26c0-1.556-.328-2.917-.984-4.083-.632-1.191-1.604-2.127-2.917-2.807-1.288-.681-2.916-1.021-4.885-1.021-1.896 0-3.475.292-4.739.875-1.264.559-2.212 1.325-2.844 2.297-.632.948-.948 2.017-.948 3.208 0 .899.219 1.714.656 2.443.461.729 1.143 1.41 2.041 2.042.9.632 2.005 1.227 3.319 1.786 1.312.559 2.831 1.106 4.557 1.641 2.892.875 5.432 1.859 7.619 2.953 2.212 1.094 4.06 2.321 5.543 3.682s2.6 2.905 3.353 4.63 1.131 3.682 1.131 5.87c0 2.309-.449 4.375-1.349 6.198-.899 1.823-2.199 3.366-3.901 4.63-1.701 1.264-3.731 2.224-6.088 2.88s-4.995.984-7.912.984c-2.624 0-5.213-.34-7.765-1.021-2.552-.705-4.873-1.762-6.963-3.172-2.067-1.41-3.719-3.208-4.959-5.396s-1.86-4.776-1.86-7.766h10.975c0 1.653.255 3.05.765 4.193s1.228 2.066 2.151 2.771c.948.705 2.067 1.215 3.355 1.531 1.312.316 2.747.474 4.301.474 1.896 0 3.452-.267 4.667-.802 1.24-.535 2.152-1.276 2.735-2.224.608-.948.912-2.017.912-3.208zm17.534-5.432v-.766c0-2.892.413-5.554 1.24-7.984.827-2.455 2.029-4.582 3.609-6.38s3.524-3.196 5.833-4.193c2.309-1.021 4.959-1.531 7.948-1.531s5.651.51 7.984 1.531c2.333.997 4.291 2.394 5.869 4.193 1.605 1.799 2.82 3.925 3.647 6.38.827 2.431 1.239 5.092 1.239 7.984v.766c0 2.868-.412 5.529-1.239 7.984-.827 2.431-2.041 4.557-3.647 6.38-1.579 1.799-3.524 3.196-5.833 4.193-2.308.997-4.957 1.495-7.948 1.495-2.989 0-5.651-.498-7.984-1.495-2.309-.997-4.265-2.394-5.869-4.193-1.58-1.823-2.783-3.95-3.609-6.38-.827-2.455-1.24-5.116-1.24-7.984zm10.5-.766v.766c0 1.653.145 3.196.437 4.63s.753 2.698 1.385 3.792a7.239 7.239 0 0 0 2.552 2.516c1.045.608 2.321.911 3.828.911 1.459 0 2.711-.304 3.756-.911s1.884-1.446 2.516-2.516c.632-1.094 1.093-2.358 1.385-3.792.316-1.434.473-2.977.473-4.63v-.766c0-1.604-.157-3.111-.473-4.521-.292-1.434-.767-2.698-1.423-3.792-.632-1.118-1.471-1.993-2.515-2.625-1.045-.632-2.309-.948-3.792-.948s-2.747.316-3.792.948c-1.021.632-1.86 1.507-2.516 2.625-.632 1.094-1.093 2.358-1.385 3.792-.292 1.41-.437 2.917-.437 4.521zM325.157-12v56H314.62v-56h10.537zm33.504 46.557V4.552h10.5V44h-9.881l-.619-9.443zm1.167-8.093 3.099-.073c0 2.625-.304 5.068-.912 7.328-.607 2.236-1.519 4.181-2.735 5.833a12.773 12.773 0 0 1-4.593 3.828c-1.847.899-4.023 1.349-6.525 1.349-1.92 0-3.695-.267-5.324-.802a10.836 10.836 0 0 1-4.156-2.589c-1.143-1.191-2.041-2.71-2.697-4.557-.632-1.871-.948-4.12-.948-6.745V4.552h10.5v25.557c0 1.167.133 2.151.401 2.953.291.802.692 1.458 1.203 1.969s1.105.875 1.787 1.094c.704.219 1.483.328 2.333.328 2.163 0 3.864-.437 5.104-1.312 1.264-.875 2.151-2.066 2.661-3.573.535-1.531.803-3.233.803-5.104zm38.169-21.912v7.438h-22.968V4.552h22.968zm-17.281-9.734h10.5v37.297c0 1.142.147 2.017.439 2.625.316.608.777 1.033 1.385 1.276.607.219 1.373.328 2.296.328.657 0 1.24-.024 1.751-.073.535-.073.984-.146 1.349-.219l.036 7.729c-.9.292-1.872.523-2.917.693-1.044.17-2.199.255-3.463.255-2.309 0-4.327-.377-6.052-1.13-1.701-.778-3.015-2.017-3.937-3.719-.924-1.701-1.387-3.938-1.387-6.708V-5.182zm35.837 9.734V44h-10.536V4.552h10.536zM405.361-5.729c0-1.531.535-2.795 1.604-3.792s2.503-1.495 4.301-1.495c1.775 0 3.197.498 4.267 1.495 1.093.997 1.64 2.26 1.64 3.792s-.547 2.795-1.64 3.792c-1.069.997-2.492 1.495-4.267 1.495-1.799 0-3.232-.498-4.301-1.495s-1.604-2.26-1.604-3.792zm19.686 30.406v-.766c0-2.892.413-5.554 1.24-7.984.827-2.455 2.029-4.582 3.609-6.38s3.524-3.196 5.833-4.193c2.309-1.021 4.959-1.531 7.948-1.531s5.651.51 7.984 1.531c2.333.997 4.291 2.394 5.871 4.193 1.604 1.799 2.819 3.925 3.645 6.38.827 2.431 1.24 5.092 1.24 7.984v.766c0 2.868-.413 5.529-1.24 7.984-.827 2.431-2.041 4.557-3.645 6.38-1.58 1.799-3.525 3.196-5.833 4.193-2.309.997-4.959 1.495-7.948 1.495-2.991 0-5.652-.498-7.985-1.495-2.308-.997-4.265-2.394-5.869-4.193-1.58-1.823-2.783-3.95-3.609-6.38-.827-2.455-1.24-5.116-1.24-7.984zm10.5-.766v.766c0 1.653.147 3.196.437 4.63.292 1.434.755 2.698 1.387 3.792a7.23 7.23 0 0 0 2.552 2.516c1.044.608 2.32.911 3.828.911 1.457 0 2.709-.304 3.755-.911s1.884-1.446 2.516-2.516c.632-1.094 1.093-2.358 1.385-3.792.316-1.434.473-2.977.473-4.63v-.766c0-1.604-.157-3.111-.473-4.521-.292-1.434-.765-2.698-1.423-3.792-.631-1.118-1.469-1.993-2.515-2.625s-2.309-.948-3.792-.948-2.747.316-3.792.948c-1.02.632-1.859 1.507-2.515 2.625-.632 1.094-1.095 2.358-1.387 3.792a22.346 22.346 0 0 0-.437 4.521zm45.097-10.937V44h-10.5V4.552h9.844l.656 8.422zm-1.531 9.917h-2.844c0-2.917.377-5.542 1.131-7.875.753-2.358 1.811-4.363 3.172-6.016 1.361-1.677 2.977-2.953 4.848-3.828 1.896-.899 4.011-1.349 6.344-1.349 1.848 0 3.537.267 5.068.802a9.684 9.684 0 0 1 3.937 2.552c1.119 1.167 1.969 2.71 2.552 4.63.608 1.92.912 4.266.912 7.036v25.156H493.66V18.806c0-1.75-.243-3.111-.729-4.083-.485-.972-1.203-1.653-2.151-2.042-.924-.413-2.065-.62-3.427-.62-1.411 0-2.637.28-3.683.839a7.314 7.314 0 0 0-2.552 2.333c-.656.972-1.155 2.115-1.495 3.427s-.511 2.722-.511 4.229zm55.926 10.208c0-.753-.219-1.434-.656-2.042s-1.252-1.167-2.443-1.677c-1.167-.535-2.856-1.021-5.068-1.458a39.321 39.321 0 0 1-5.577-1.641c-1.701-.681-3.184-1.495-4.448-2.443-1.24-.948-2.212-2.066-2.917-3.354-.704-1.313-1.057-2.807-1.057-4.484a10.6 10.6 0 0 1 1.057-4.667c.729-1.458 1.763-2.747 3.099-3.865 1.361-1.142 3.015-2.029 4.959-2.661 1.969-.656 4.181-.984 6.636-.984 3.427 0 6.368.547 8.823 1.641 2.479 1.094 4.375 2.601 5.688 4.521 1.336 1.896 2.004 4.059 2.004 6.49h-10.5c0-1.021-.219-1.932-.656-2.734-.413-.826-1.069-1.47-1.968-1.932-.876-.486-2.017-.729-3.428-.729-1.167 0-2.175.207-3.025.62-.851.389-1.507.924-1.969 1.604a3.86 3.86 0 0 0-.656 2.188c0 .608.121 1.155.365 1.641.267.462.692.887 1.276 1.276.583.389 1.336.753 2.26 1.094.948.316 2.115.608 3.5.875 2.844.583 5.384 1.349 7.62 2.297 2.236.924 4.011 2.187 5.323 3.792 1.312 1.58 1.968 3.658 1.968 6.234 0 1.75-.388 3.354-1.167 4.813-.777 1.458-1.895 2.734-3.353 3.828-1.459 1.069-3.208 1.908-5.251 2.516-2.017.583-4.289.875-6.817.875-3.671 0-6.781-.656-9.333-1.969-2.528-1.313-4.448-2.977-5.76-4.995-1.288-2.042-1.932-4.132-1.932-6.271h9.952c.049 1.434.413 2.589 1.095 3.464a5.97 5.97 0 0 0 2.661 1.896c1.093.389 2.272.583 3.536.583 1.361 0 2.492-.182 3.391-.547.9-.389 1.58-.899 2.041-1.531.487-.656.729-1.41.729-2.26zM-73.389 124h-10.573V81.052c0-2.99.583-5.505 1.75-7.547a11.447 11.447 0 0 1 4.995-4.667c2.163-1.069 4.727-1.604 7.693-1.604.972 0 1.908.073 2.807.219.899.122 1.774.28 2.625.474l-.109 7.911c-.462-.121-.948-.207-1.458-.255s-1.106-.073-1.786-.073c-1.264 0-2.345.219-3.245.656-.875.413-1.543 1.033-2.005 1.859s-.693 1.835-.693 3.026v42.948zm7.875-39.448v7.437h-24.318v-7.437h24.318zm5.321 20.125v-.766c0-2.892.413-5.554 1.24-7.984.826-2.455 2.029-4.582 3.609-6.38s3.524-3.196 5.833-4.193c2.309-1.021 4.958-1.531 7.948-1.531s5.651.51 7.984 1.531c2.333.997 4.29 2.394 5.87 4.193 1.604 1.799 2.819 3.925 3.646 6.38.826 2.431 1.24 5.092 1.24 7.984v.766c0 2.868-.413 5.529-1.24 7.984-.826 2.431-2.042 4.557-3.646 6.38-1.58 1.799-3.524 3.196-5.833 4.193s-4.958 1.495-7.948 1.495-5.651-.498-7.984-1.495c-2.309-.997-4.266-2.394-5.87-4.193-1.58-1.823-2.783-3.95-3.609-6.38-.826-2.455-1.24-5.116-1.24-7.984zm10.5-.766v.766c0 1.653.146 3.196.437 4.63s.753 2.698 1.385 3.792c.656 1.069 1.507 1.908 2.552 2.516s2.321.911 3.828.911c1.458 0 2.71-.304 3.755-.911s1.884-1.446 2.516-2.516c.632-1.094 1.094-2.358 1.385-3.792.316-1.434.474-2.977.474-4.63v-.766c0-1.604-.158-3.111-.474-4.521-.292-1.434-.766-2.698-1.422-3.792-.632-1.118-1.47-1.993-2.516-2.625s-2.309-.948-3.792-.948c-1.483 0-2.747.316-3.792.948-1.021.632-1.859 1.507-2.516 2.625-.632 1.094-1.094 2.358-1.385 3.792-.292 1.41-.437 2.917-.437 4.521zm45.316-10.755V124h-10.5V84.552h9.88l.62 8.604zm11.886-8.859-.182 9.734c-.51-.073-1.13-.134-1.859-.182a18.876 18.876 0 0 0-1.932-.109c-1.483 0-2.771.194-3.865.583-1.069.365-1.969.911-2.698 1.641-.705.729-1.24 1.616-1.604 2.661-.34 1.045-.535 2.236-.583 3.573l-2.115-.656c0-2.552.255-4.897.766-7.036.51-2.163 1.252-4.047 2.224-5.651.997-1.604 2.212-2.844 3.646-3.719s3.075-1.313 4.922-1.313c.583 0 1.179.049 1.786.146.608.073 1.106.182 1.495.328zm34.486-13.38 11.083 24.208 11.083-24.208h11.922l-17.464 33.76V124H47.536v-19.323l-17.5-33.76h11.958zm35.692 33.76v-.766c0-2.892.413-5.554 1.24-7.984.826-2.455 2.029-4.582 3.609-6.38s3.524-3.196 5.833-4.193c2.309-1.021 4.958-1.531 7.948-1.531s5.651.51 7.984 1.531c2.333.997 4.29 2.394 5.87 4.193 1.604 1.799 2.819 3.925 3.646 6.38.826 2.431 1.24 5.092 1.24 7.984v.766c0 2.868-.413 5.529-1.24 7.984-.826 2.431-2.042 4.557-3.646 6.38-1.58 1.799-3.524 3.196-5.833 4.193s-4.958 1.495-7.948 1.495-5.651-.498-7.984-1.495c-2.309-.997-4.266-2.394-5.87-4.193-1.58-1.823-2.783-3.95-3.609-6.38-.826-2.455-1.24-5.116-1.24-7.984zm10.5-.766v.766c0 1.653.146 3.196.437 4.63s.753 2.698 1.385 3.792c.656 1.069 1.507 1.908 2.552 2.516s2.321.911 3.828.911c1.458 0 2.71-.304 3.755-.911s1.884-1.446 2.516-2.516c.632-1.094 1.094-2.358 1.385-3.792.316-1.434.474-2.977.474-4.63v-.766c0-1.604-.158-3.111-.474-4.521-.292-1.434-.766-2.698-1.422-3.792-.632-1.118-1.471-1.993-2.516-2.625s-2.309-.948-3.792-.948c-1.483 0-2.747.316-3.792.948-1.021.632-1.859 1.507-2.516 2.625-.632 1.094-1.094 2.358-1.385 3.792-.292 1.41-.437 2.917-.437 4.521zm58.149 10.646V84.552h10.5V124h-9.88l-.62-9.443zm1.167-8.093 3.099-.073c0 2.625-.303 5.068-.911 7.328-.608 2.236-1.52 4.181-2.735 5.833a12.79 12.79 0 0 1-4.593 3.828c-1.848.899-4.023 1.349-6.527 1.349-1.92 0-3.694-.267-5.323-.802a10.829 10.829 0 0 1-4.156-2.589c-1.142-1.191-2.042-2.71-2.698-4.557-.632-1.871-.948-4.12-.948-6.745V84.552h10.5v25.557c0 1.167.134 2.151.401 2.953.292.802.693 1.458 1.204 1.969.509.51 1.105.875 1.785 1.094.705.219 1.483.328 2.333.328 2.164 0 3.865-.437 5.105-1.312 1.263-.875 2.151-2.066 2.661-3.573.535-1.531.801-3.233.801-5.104zm29.348-13.308V124h-10.5V84.552h9.88l.62 8.604zm11.885-8.859-.183 9.734a25.092 25.092 0 0 0-1.859-.182 18.879 18.879 0 0 0-1.933-.109c-1.483 0-2.771.194-3.864.583-1.069.365-1.969.911-2.697 1.641-.705.729-1.24 1.616-1.605 2.661-.34 1.045-.535 2.236-.583 3.573l-2.115-.656c0-2.552.255-4.897.765-7.036.511-2.163 1.252-4.047 2.224-5.651.997-1.604 2.212-2.844 3.647-3.719 1.433-.875 3.075-1.313 4.921-1.313.583 0 1.179.049 1.787.146.608.073 1.105.182 1.495.328zm47.976 16.406h-13.636l-.072-7.51h11.448c2.017 0 3.669-.255 4.957-.766 1.289-.535 2.249-1.3 2.881-2.297.656-1.021.984-2.261.984-3.719 0-1.653-.316-2.99-.948-4.01-.608-1.021-1.568-1.762-2.88-2.224-1.288-.462-2.953-.693-4.995-.693h-7.584V124H215.93V70.917h18.521c3.087 0 5.845.292 8.276.875 2.455.583 4.533 1.47 6.235 2.661s3.001 2.698 3.9 4.521c.9 1.799 1.349 3.937 1.349 6.417 0 2.187-.499 4.205-1.495 6.052-.972 1.847-2.516 3.354-4.631 4.521-2.089 1.167-4.824 1.811-8.203 1.932l-3.172 2.807zM236.239 124h-16.152l4.267-8.531h11.885c1.92 0 3.487-.304 4.703-.911 1.215-.632 2.115-1.483 2.697-2.552.584-1.069.876-2.297.876-3.682 0-1.556-.268-2.905-.803-4.047-.511-1.142-1.337-2.017-2.479-2.625-1.143-.632-2.649-.948-4.521-.948h-10.536l.072-7.51h13.125l2.516 2.953c3.232-.049 5.833.523 7.801 1.713 1.993 1.167 3.44 2.686 4.339 4.557.924 1.871 1.385 3.877 1.385 6.016 0 3.403-.741 6.271-2.224 8.604-1.483 2.309-3.657 4.047-6.525 5.214-2.844 1.167-6.32 1.75-10.427 1.75zm51.55-9.443V84.552h10.5V124h-9.881l-.619-9.443zm1.167-8.093 3.099-.073c0 2.625-.304 5.068-.912 7.328-.608 2.236-1.519 4.181-2.735 5.833a12.773 12.773 0 0 1-4.593 3.828c-1.847.899-4.023 1.349-6.525 1.349-1.921 0-3.695-.267-5.324-.802a10.836 10.836 0 0 1-4.156-2.589c-1.143-1.191-2.041-2.71-2.697-4.557-.632-1.871-.948-4.12-.948-6.745V84.552h10.5v25.557c0 1.167.133 2.151.401 2.953.291.802.692 1.458 1.203 1.969s1.105.875 1.787 1.094c.704.219 1.483.328 2.333.328 2.163 0 3.864-.437 5.104-1.312 1.264-.875 2.151-2.066 2.661-3.573.535-1.531.803-3.233.803-5.104zm40.175 6.635c0-.753-.219-1.434-.656-2.042s-1.252-1.167-2.443-1.677c-1.167-.535-2.856-1.021-5.068-1.458a39.321 39.321 0 0 1-5.577-1.641c-1.701-.681-3.184-1.495-4.448-2.443-1.24-.948-2.212-2.066-2.917-3.354-.704-1.313-1.057-2.807-1.057-4.484a10.6 10.6 0 0 1 1.057-4.667c.729-1.458 1.763-2.747 3.099-3.865 1.361-1.142 3.015-2.03 4.959-2.661 1.969-.656 4.181-.984 6.636-.984 3.427 0 6.368.547 8.823 1.641 2.479 1.094 4.375 2.601 5.688 4.521 1.336 1.896 2.004 4.059 2.004 6.49h-10.5c0-1.021-.219-1.932-.656-2.734-.413-.826-1.069-1.471-1.968-1.932-.876-.486-2.017-.729-3.428-.729-1.167 0-2.175.207-3.025.62-.851.389-1.507.924-1.969 1.604a3.86 3.86 0 0 0-.656 2.187c0 .608.121 1.155.365 1.641.267.462.692.887 1.276 1.276.583.389 1.336.753 2.26 1.094.948.316 2.115.608 3.5.875 2.844.583 5.384 1.349 7.62 2.297 2.236.924 4.011 2.187 5.323 3.792 1.312 1.58 1.969 3.658 1.969 6.234 0 1.75-.389 3.354-1.167 4.813-.779 1.458-1.896 2.734-3.355 3.828-1.459 1.069-3.208 1.908-5.251 2.516-2.017.583-4.289.875-6.817.875-3.669 0-6.781-.656-9.333-1.969-2.528-1.313-4.448-2.977-5.76-4.995-1.288-2.042-1.932-4.132-1.932-6.271h9.952c.049 1.434.413 2.589 1.095 3.464a5.97 5.97 0 0 0 2.661 1.896c1.093.389 2.272.583 3.536.583 1.361 0 2.492-.182 3.391-.547.9-.389 1.58-.899 2.041-1.531.487-.656.729-1.41.729-2.26zm29.602-28.547V124h-10.536V84.552h10.536zm-11.192-10.281c0-1.531.535-2.795 1.604-3.792s2.503-1.495 4.301-1.495c1.775 0 3.197.498 4.267 1.495 1.093.997 1.64 2.26 1.64 3.792s-.547 2.795-1.64 3.792c-1.069.997-2.492 1.495-4.267 1.495-1.799 0-3.232-.498-4.301-1.495s-1.604-2.26-1.604-3.792zm31.644 18.703V124h-10.5V84.552h9.844l.656 8.422zm-1.53 9.917h-2.844c0-2.917.376-5.542 1.129-7.875.755-2.358 1.812-4.363 3.172-6.016 1.361-1.677 2.977-2.953 4.849-3.828 1.896-.899 4.011-1.349 6.344-1.349 1.847 0 3.536.267 5.068.802a9.698 9.698 0 0 1 3.937 2.552c1.117 1.167 1.968 2.71 2.552 4.63.608 1.92.911 4.266.911 7.036v25.156h-10.572V98.806c0-1.75-.244-3.111-.729-4.083-.487-.972-1.203-1.653-2.151-2.042-.924-.413-2.067-.62-3.428-.62-1.409 0-2.637.279-3.681.839a7.314 7.314 0 0 0-2.552 2.333c-.657.972-1.155 2.115-1.496 3.427-.34 1.313-.509 2.722-.509 4.229zm52.753 21.838c-3.063 0-5.809-.486-8.24-1.458-2.431-.997-4.496-2.37-6.197-4.12a18.323 18.323 0 0 1-3.865-6.089c-.899-2.333-1.348-4.813-1.348-7.437v-1.458c0-2.99.425-5.724 1.276-8.203s2.065-4.63 3.645-6.453c1.604-1.823 3.548-3.221 5.833-4.193 2.285-.997 4.861-1.495 7.729-1.495 2.795 0 5.275.462 7.437 1.385s3.975 2.236 5.432 3.938c1.483 1.701 2.601 3.743 3.355 6.125.753 2.358 1.131 4.983 1.131 7.875v4.375h-31.355v-7h21.036v-.802c0-1.458-.267-2.759-.801-3.901-.511-1.167-1.288-2.09-2.333-2.771s-2.383-1.021-4.011-1.021c-1.385 0-2.576.304-3.573.911-.996.608-1.811 1.458-2.443 2.552-.608 1.094-1.069 2.382-1.385 3.865-.292 1.458-.437 3.063-.437 4.813v1.458c0 1.58.219 3.038.656 4.375.463 1.337 1.107 2.491 1.932 3.464a8.817 8.817 0 0 0 3.063 2.26c1.216.535 2.589.802 4.12.802 1.896 0 3.659-.365 5.287-1.094 1.653-.753 3.075-1.884 4.265-3.391l5.104 5.542c-.827 1.191-1.956 2.333-3.391 3.427-1.409 1.094-3.111 1.993-5.104 2.698-1.993.681-4.265 1.021-6.817 1.021zm44.988-11.63c0-.753-.219-1.434-.656-2.042s-1.252-1.167-2.443-1.677c-1.167-.535-2.856-1.021-5.068-1.458a39.428 39.428 0 0 1-5.579-1.641c-1.701-.681-3.184-1.495-4.448-2.443-1.239-.948-2.211-2.066-2.916-3.354-.705-1.313-1.057-2.807-1.057-4.484 0-1.653.352-3.208 1.057-4.667.729-1.458 1.763-2.747 3.099-3.865 1.361-1.142 3.015-2.03 4.959-2.661 1.968-.656 4.18-.984 6.635-.984 3.428 0 6.369.547 8.824 1.641 2.479 1.094 4.375 2.601 5.687 4.521 1.337 1.896 2.005 4.059 2.005 6.49h-10.5c0-1.021-.219-1.932-.656-2.734-.413-.826-1.069-1.471-1.969-1.932-.875-.486-2.017-.729-3.427-.729-1.167 0-2.175.207-3.025.62-.851.389-1.508.924-1.969 1.604a3.86 3.86 0 0 0-.656 2.187c0 .608.121 1.155.364 1.641.268.462.693.887 1.276 1.276.584.389 1.337.753 2.261 1.094.948.316 2.115.608 3.5.875 2.843.583 5.383 1.349 7.619 2.297 2.237.924 4.011 2.187 5.324 3.792 1.312 1.58 1.968 3.658 1.968 6.234 0 1.75-.388 3.354-1.167 4.813-.777 1.458-1.896 2.734-3.353 3.828-1.459 1.069-3.209 1.908-5.251 2.516-2.017.583-4.289.875-6.817.875-3.671 0-6.781-.656-9.333-1.969-2.528-1.313-4.448-2.977-5.76-4.995-1.289-2.042-1.933-4.132-1.933-6.271h9.953c.049 1.434.413 2.589 1.093 3.464a5.971 5.971 0 0 0 2.663 1.896c1.093.389 2.272.583 3.536.583 1.361 0 2.491-.182 3.391-.547.899-.389 1.58-.899 2.041-1.531.487-.656.729-1.41.729-2.26zm39.848 0c0-.753-.219-1.434-.657-2.042-.437-.608-1.251-1.167-2.443-1.677-1.167-.535-2.855-1.021-5.067-1.458a39.389 39.389 0 0 1-5.579-1.641c-1.701-.681-3.184-1.495-4.448-2.443-1.24-.948-2.212-2.066-2.916-3.354-.705-1.313-1.057-2.807-1.057-4.484 0-1.653.352-3.208 1.057-4.667.729-1.458 1.761-2.747 3.099-3.865 1.361-1.142 3.013-2.03 4.959-2.661 1.968-.656 4.18-.984 6.635-.984 3.427 0 6.368.547 8.823 1.641 2.48 1.094 4.376 2.601 5.688 4.521 1.337 1.896 2.005 4.059 2.005 6.49h-10.5c0-1.021-.219-1.932-.656-2.734-.413-.826-1.069-1.471-1.969-1.932-.875-.486-2.017-.729-3.427-.729-1.167 0-2.176.207-3.027.62-.851.389-1.507.924-1.968 1.604a3.86 3.86 0 0 0-.656 2.187c0 .608.121 1.155.364 1.641.268.462.693.887 1.276 1.276.584.389 1.337.753 2.26 1.094.948.316 2.115.608 3.5.875 2.844.583 5.384 1.349 7.62 2.297 2.236.924 4.011 2.187 5.323 3.792 1.313 1.58 1.969 3.658 1.969 6.234 0 1.75-.389 3.354-1.167 4.813s-1.896 2.734-3.355 3.828c-1.457 1.069-3.208 1.908-5.249 2.516-2.017.583-4.291.875-6.817.875-3.671 0-6.781-.656-9.333-1.969-2.528-1.313-4.448-2.977-5.761-4.995-1.288-2.042-1.932-4.132-1.932-6.271h9.953c.048 1.434.413 2.589 1.093 3.464a5.976 5.976 0 0 0 2.661 1.896c1.095.389 2.273.583 3.537.583 1.36 0 2.491-.182 3.391-.547.899-.389 1.579-.899 2.041-1.531.485-.656.729-1.41.729-2.26z" style="fill:var(--color7, #fff)"/><path fill="#2e2f42" d="M-741.333-378.667h1920v901.333h-1920v-901.333z" opacity=".4" style="fill:var(--color3, #2e2f42)"/><path fill="#fcfcfc" d="M-48-272h533.333a5.333 5.333 0 0 1 5.333 5.333v768a5.333 5.333 0 0 1-5.333 5.333H-48a5.333 5.333 0 0 1-5.333-5.333v-768A5.333 5.333 0 0 1-48-272z" style="fill:var(--color10, #fcfcfc)"/><path fill="none" stroke="#2e2f42" stroke-width="1.333" d="M-16-10h469.333A4.667 4.667 0 0 1 458-5.333v42.667a4.667 4.667 0 0 1-4.667 4.667H-16a4.667 4.667 0 0 1-4.667-4.667V-5.333A4.667 4.667 0 0 1-16-10z" style="stroke:var(--color3, #2e2f42)"/><path fill="#2e2f42" d="m19.635 18.487-2.451-.28a1.92 1.92 0 0 0-1.582.55l-1.775 1.775a14.514 14.514 0 0 1-6.359-6.359l1.785-1.785c.415-.415.618-.994.55-1.582l-.28-2.432a1.931 1.931 0 0 0-1.92-1.708H5.934c-1.09 0-1.997.907-1.93 1.997.511 8.24 7.102 14.821 15.332 15.332 1.09.068 1.997-.839 1.997-1.93v-1.669a1.913 1.913 0 0 0-1.698-1.911z" style="fill:var(--color3, #2e2f42)"/></symbol></defs></svg>