<svg aria-hidden="true" style="position: absolute; width: 0; height: 0; overflow: hidden;" version="1.1" xmlns="http://www.w3.org/2000/svg" xmlns:xlink="http://www.w3.org/1999/xlink">
<defs>
<symbol id="icon-button-send" viewBox="0 0 32 32">
<path fill="#fff" style="fill: var(--color7, #fff)" d="M32 2.667l-32 15 10.227 3.156 15.773-12.323-11.998 13.488 0.010 0.003-0.012-0.003v7.345l5.735-5.576 7.265 2.242 5-23.333z"></path>
</symbol>
<symbol id="icon-checkbox-checked" viewBox="0 0 32 32">
<path fill="#404bbf" style="fill: var(--color8, #404bbf)" d="M4 1h24c1.657 0 3 1.343 3 3v24c0 1.657-1.343 3-3 3h-24c-1.657 0-3-1.343-3-3v-24c0-1.657 1.343-3 3-3z"></path>
<path fill="#f4f4fd" style="fill: var(--color2, #f4f4fd)" d="M22.891 8.51c0.346-0.331 0.805-0.514 1.283-0.51s0.934 0.193 1.275 0.53c0.341 0.336 0.538 0.792 0.551 1.272s-0.161 0.945-0.483 1.299l-9.789 12.309c-0.168 0.182-0.371 0.328-0.597 0.43s-0.47 0.156-0.717 0.161c-0.247 0.005-0.493-0.041-0.723-0.134s-0.438-0.232-0.613-0.408l-6.492-6.527c-0.181-0.169-0.326-0.374-0.426-0.601s-0.155-0.472-0.159-0.72c-0.004-0.248 0.041-0.495 0.134-0.725s0.23-0.44 0.405-0.615c0.175-0.176 0.383-0.314 0.612-0.407s0.475-0.139 0.722-0.134c0.247 0.004 0.491 0.059 0.716 0.16s0.429 0.247 0.597 0.429l5.137 5.163 8.521-10.915c0.015-0.019 0.032-0.037 0.049-0.054h-0.002z"></path>
<path fill="none" stroke="#404bbf" style="stroke: var(--color8, #404bbf)" stroke-linejoin="miter" stroke-linecap="butt" stroke-miterlimit="4" stroke-width="2" d="M4 1h24c1.657 0 3 1.343 3 3v24c0 1.657-1.343 3-3 3h-24c-1.657 0-3-1.343-3-3v-24c0-1.657 1.343-3 3-3z"></path>
</symbol>
<symbol id="icon-checkbox" viewBox="0 0 32 32">
<path stroke-linejoin="miter" stroke-linecap="butt" stroke-miterlimit="4" stroke-width="2" d="M4 1h24c1.657 0 3 1.343 3 3v24c0 1.657-1.343 3-3 3h-24c-1.657 0-3-1.343-3-3v-24c0-1.657 1.343-3 3-3z"></path>
</symbol>
<symbol id="icon-email" viewBox="0 0 24 32">
<path d="M20 8h-16c-1.1 0-1.99 0.9-1.99 2l-0.010 12c0 1.1 0.9 2 2 2h16c1.1 0 2-0.9 2-2v-12c0-1.1-0.9-2-2-2zM19.6 12.25l-7.070 4.42c-0.32 0.2-0.74 0.2-1.060 0l-7.070-4.42c-0.25-0.16-0.4-0.43-0.4-0.72 0-0.67 0.73-1.070 1.3-0.72l6.7 4.19 6.7-4.19c0.57-0.35 1.3 0.050 1.3 0.72 0 0.29-0.15 0.56-0.4 0.72z"></path>
</symbol>
<symbol id="icon-person" viewBox="0 0 32 32">
<path fill="#4d5ae5" style="fill: var(--color1, #4d5ae5)" d="M16 16c2.947 0 5.333-2.387 5.333-5.333s-2.387-5.333-5.333-5.333c-2.947 0-5.333 2.387-5.333 5.333s2.387 5.333 5.333 5.333zM16 18.667c-3.56 0-10.667 1.787-10.667 5.333v1.333c0 0.733 0.6 1.333 1.333 1.333h18.667c0.733 0 1.333-0.6 1.333-1.333v-1.333c0-3.547-7.107-5.333-10.667-5.333z"></path>
</symbol>
<symbol id="icon-phone" viewBox="0 0 24 32">
<path fill="#e5e5e5" style="fill: var(--color9, #e5e5e5)" d="M0 0h24v32h-24v-32z"></path>
<path fill="#fff" style="fill: var(--color7, #fff)" d="M-741.333-378.667h1920v896h-1920v-896z"></path>
<path fill="#000" style="fill: var(--color5, #000)" d="M-741.333-282.667h1920v800h-1920v-800z"></path>
<path fill="#2e2f42" style="fill: var(--color3, #2e2f42)" opacity="0.7" d="M-741.333-282.667h1920v800h-1920v-800z"></path>
<path fill="#fff" style="fill: var(--color7, #fff)" d="M-70.289 35.469v8.531h-28.255v-8.531h28.255zM-94.971-9.083v53.083h-10.938v-53.083h10.938zM-73.971 12.536v8.312h-24.573v-8.312h24.573zM-70.325-9.083v8.568h-28.219v-8.568h28.219zM-50.348 44h-10.573v-42.948c0-2.99 0.583-5.505 1.75-7.547 1.191-2.066 2.856-3.622 4.995-4.667 2.163-1.069 4.727-1.604 7.693-1.604 0.972 0 1.908 0.073 2.807 0.219 0.899 0.122 1.774 0.28 2.625 0.474l-0.109 7.911c-0.462-0.122-0.948-0.207-1.458-0.255s-1.106-0.073-1.787-0.073c-1.264 0-2.345 0.219-3.245 0.656-0.875 0.413-1.543 1.033-2.005 1.859s-0.693 1.835-0.693 3.026v42.948zM-42.473 4.552v7.438h-24.318v-7.438h24.318zM-22.094 44h-10.573v-42.948c0-2.99 0.583-5.505 1.75-7.547 1.191-2.066 2.856-3.622 4.995-4.667 2.163-1.069 4.727-1.604 7.693-1.604 0.972 0 1.908 0.073 2.807 0.219 0.899 0.122 1.774 0.28 2.625 0.474l-0.109 7.911c-0.462-0.122-0.948-0.207-1.458-0.255s-1.106-0.073-1.786-0.073c-1.264 0-2.346 0.219-3.245 0.656-0.875 0.413-1.543 1.033-2.005 1.859s-0.693 1.835-0.693 3.026v42.948zM-14.219 4.552v7.438h-24.318v-7.438h24.318zM10.061 44.729c-3.063 0-5.809-0.486-8.24-1.458-2.431-0.997-4.497-2.37-6.198-4.12-1.677-1.75-2.965-3.78-3.865-6.089-0.899-2.333-1.349-4.813-1.349-7.437v-1.458c0-2.99 0.425-5.724 1.276-8.203s2.066-4.63 3.646-6.453c1.604-1.823 3.549-3.22 5.833-4.193 2.285-0.997 4.861-1.495 7.729-1.495 2.795 0 5.274 0.462 7.437 1.385s3.974 2.236 5.432 3.937c1.483 1.701 2.601 3.743 3.354 6.125 0.753 2.358 1.13 4.983 1.13 7.875v4.375h-31.354v-7h21.037v-0.802c0-1.458-0.267-2.759-0.802-3.901-0.51-1.167-1.288-2.090-2.333-2.771s-2.382-1.021-4.010-1.021c-1.385 0-2.576 0.304-3.573 0.911s-1.811 1.458-2.443 2.552c-0.608 1.094-1.069 2.382-1.385 3.865-0.292 1.458-0.438 3.063-0.438 4.813v1.458c0 1.58 0.219 3.038 0.656 4.375 0.462 1.337 1.106 2.491 1.932 3.464 0.851 0.972 1.872 1.726 3.063 2.26 1.215 0.535 2.589 0.802 4.12 0.802 1.896 0 3.658-0.365 5.287-1.094 1.653-0.753 3.075-1.884 4.266-3.391l5.104 5.542c-0.826 1.191-1.957 2.333-3.391 3.427-1.41 1.094-3.111 1.993-5.104 2.698-1.993 0.681-4.266 1.021-6.818 1.021zM50.018 36.526c1.288 0 2.431-0.243 3.427-0.729 0.997-0.511 1.774-1.215 2.333-2.115 0.583-0.924 0.887-2.005 0.911-3.245h9.88c-0.024 2.771-0.766 5.238-2.224 7.401-1.458 2.139-3.415 3.828-5.87 5.068-2.455 1.215-5.201 1.823-8.24 1.823-3.062 0-5.736-0.51-8.021-1.531-2.26-1.021-4.144-2.431-5.651-4.229-1.507-1.823-2.637-3.938-3.391-6.344-0.753-2.431-1.13-5.031-1.13-7.802v-1.057c0-2.795 0.377-5.396 1.13-7.802 0.753-2.431 1.884-4.545 3.391-6.344 1.507-1.823 3.391-3.245 5.651-4.266s4.91-1.531 7.948-1.531c3.233 0 6.064 0.62 8.495 1.859 2.455 1.24 4.375 3.014 5.76 5.323 1.41 2.285 2.127 4.995 2.151 8.13h-9.88c-0.024-1.313-0.304-2.503-0.839-3.573-0.51-1.069-1.264-1.92-2.26-2.552-0.972-0.656-2.175-0.984-3.609-0.984-1.531 0-2.783 0.328-3.755 0.984-0.972 0.632-1.726 1.507-2.26 2.625-0.535 1.094-0.911 2.345-1.13 3.755-0.195 1.385-0.292 2.844-0.292 4.375v1.057c0 1.531 0.097 3.002 0.292 4.411s0.559 2.661 1.094 3.755c0.559 1.094 1.325 1.957 2.297 2.589s2.236 0.948 3.792 0.948zM93.475 4.552v7.438h-22.969v-7.438h22.969zM76.193-5.182h10.5v37.297c0 1.142 0.146 2.017 0.437 2.625 0.316 0.608 0.778 1.033 1.385 1.276 0.608 0.219 1.373 0.328 2.297 0.328 0.656 0 1.24-0.024 1.75-0.073 0.535-0.073 0.984-0.146 1.349-0.219l0.036 7.729c-0.899 0.292-1.871 0.523-2.917 0.693s-2.2 0.255-3.463 0.255c-2.309 0-4.326-0.377-6.052-1.13-1.701-0.778-3.014-2.017-3.937-3.719s-1.385-3.938-1.385-6.708v-38.354zM112.030 4.552v39.448h-10.536v-39.448h10.536zM100.838-5.729c0-1.531 0.535-2.795 1.604-3.792s2.503-1.495 4.302-1.495c1.774 0 3.196 0.498 4.266 1.495 1.094 0.997 1.641 2.26 1.641 3.792s-0.547 2.795-1.641 3.792c-1.069 0.997-2.491 1.495-4.266 1.495-1.799 0-3.233-0.498-4.302-1.495s-1.604-2.26-1.604-3.792zM135.617 36.344l8.751-31.792h10.973l-13.307 39.448h-6.636l0.219-7.656zM129.602 4.552l8.786 31.828 0.183 7.62h-6.672l-13.307-39.448h11.010zM179.184 44.729c-3.063 0-5.809-0.486-8.24-1.458-2.431-0.997-4.496-2.37-6.197-4.12-1.677-1.75-2.965-3.78-3.865-6.089-0.899-2.333-1.348-4.813-1.348-7.437v-1.458c0-2.99 0.425-5.724 1.276-8.203s2.065-4.63 3.645-6.453c1.604-1.823 3.548-3.22 5.833-4.193 2.284-0.997 4.861-1.495 7.729-1.495 2.795 0 5.275 0.462 7.437 1.385s3.973 2.236 5.432 3.937c1.483 1.701 2.601 3.743 3.355 6.125 0.753 2.358 1.129 4.983 1.129 7.875v4.375h-31.353v-7h21.036v-0.802c0-1.458-0.267-2.759-0.801-3.901-0.511-1.167-1.289-2.090-2.333-2.771-1.045-0.681-2.383-1.021-4.011-1.021-1.385 0-2.577 0.304-3.573 0.911s-1.811 1.458-2.443 2.552c-0.608 1.094-1.069 2.382-1.385 3.865-0.292 1.458-0.437 3.063-0.437 4.813v1.458c0 1.58 0.219 3.038 0.656 4.375 0.461 1.337 1.105 2.491 1.932 3.464 0.851 0.972 1.872 1.726 3.063 2.26 1.216 0.535 2.589 0.802 4.12 0.802 1.896 0 3.657-0.365 5.287-1.094 1.652-0.753 3.075-1.884 4.265-3.391l5.104 5.542c-0.827 1.191-1.956 2.333-3.391 3.427-1.409 1.094-3.111 1.993-5.104 2.698-1.993 0.681-4.265 1.021-6.817 1.021zM251.223 30.109c0-0.948-0.147-1.799-0.437-2.552-0.268-0.778-0.779-1.483-1.532-2.115-0.753-0.656-1.811-1.3-3.172-1.932-1.36-0.632-3.123-1.288-5.285-1.969-2.407-0.778-4.692-1.653-6.855-2.625-2.139-0.972-4.035-2.102-5.688-3.391-1.628-1.312-2.916-2.832-3.864-4.557-0.924-1.726-1.385-3.731-1.385-6.016 0-2.212 0.485-4.217 1.459-6.016 0.972-1.823 2.333-3.378 4.083-4.667 1.751-1.313 3.816-2.321 6.197-3.026 2.407-0.705 5.044-1.057 7.912-1.057 3.913 0 7.328 0.705 10.245 2.115 2.916 1.41 5.176 3.342 6.781 5.797 1.628 2.455 2.443 5.262 2.443 8.422h-10.865c0-1.556-0.328-2.917-0.984-4.083-0.632-1.191-1.604-2.127-2.917-2.807-1.288-0.681-2.916-1.021-4.885-1.021-1.896 0-3.475 0.292-4.739 0.875-1.264 0.559-2.212 1.325-2.844 2.297-0.632 0.948-0.948 2.017-0.948 3.208 0 0.899 0.219 1.714 0.656 2.443 0.461 0.729 1.143 1.41 2.041 2.042 0.9 0.632 2.005 1.227 3.319 1.786 1.312 0.559 2.831 1.106 4.557 1.641 2.892 0.875 5.432 1.859 7.619 2.953 2.212 1.094 4.060 2.321 5.543 3.682s2.6 2.905 3.353 4.63 1.131 3.682 1.131 5.87c0 2.309-0.449 4.375-1.349 6.198-0.899 1.823-2.199 3.366-3.901 4.63-1.701 1.264-3.731 2.224-6.088 2.88s-4.995 0.984-7.912 0.984c-2.624 0-5.213-0.34-7.765-1.021-2.552-0.705-4.873-1.762-6.963-3.172-2.067-1.41-3.719-3.208-4.959-5.396s-1.86-4.776-1.86-7.766h10.975c0 1.653 0.255 3.050 0.765 4.193s1.228 2.066 2.151 2.771c0.948 0.705 2.067 1.215 3.355 1.531 1.312 0.316 2.747 0.474 4.301 0.474 1.896 0 3.452-0.267 4.667-0.802 1.24-0.535 2.152-1.276 2.735-2.224 0.608-0.948 0.912-2.017 0.912-3.208zM268.757 24.677v-0.766c0-2.892 0.413-5.554 1.24-7.984 0.827-2.455 2.029-4.582 3.609-6.38s3.524-3.196 5.833-4.193c2.309-1.021 4.959-1.531 7.948-1.531s5.651 0.51 7.984 1.531c2.333 0.997 4.291 2.394 5.869 4.193 1.605 1.799 2.82 3.925 3.647 6.38 0.827 2.431 1.239 5.092 1.239 7.984v0.766c0 2.868-0.412 5.529-1.239 7.984-0.827 2.431-2.041 4.557-3.647 6.38-1.579 1.799-3.524 3.196-5.833 4.193-2.308 0.997-4.957 1.495-7.948 1.495-2.989 0-5.651-0.498-7.984-1.495-2.309-0.997-4.265-2.394-5.869-4.193-1.58-1.823-2.783-3.95-3.609-6.38-0.827-2.455-1.24-5.116-1.24-7.984zM279.257 23.911v0.766c0 1.653 0.145 3.196 0.437 4.63s0.753 2.698 1.385 3.792c0.656 1.069 1.508 1.908 2.552 2.516 1.045 0.608 2.321 0.911 3.828 0.911 1.459 0 2.711-0.304 3.756-0.911s1.884-1.446 2.516-2.516c0.632-1.094 1.093-2.358 1.385-3.792 0.316-1.434 0.473-2.977 0.473-4.63v-0.766c0-1.604-0.157-3.111-0.473-4.521-0.292-1.434-0.767-2.698-1.423-3.792-0.632-1.118-1.471-1.993-2.515-2.625-1.045-0.632-2.309-0.948-3.792-0.948s-2.747 0.316-3.792 0.948c-1.021 0.632-1.86 1.507-2.516 2.625-0.632 1.094-1.093 2.358-1.385 3.792-0.292 1.41-0.437 2.917-0.437 4.521zM325.157-12v56h-10.537v-56h10.537zM358.661 34.557v-30.005h10.5v39.448h-9.881l-0.619-9.443zM359.828 26.464l3.099-0.073c0 2.625-0.304 5.068-0.912 7.328-0.607 2.236-1.519 4.181-2.735 5.833-1.215 1.628-2.745 2.904-4.593 3.828-1.847 0.899-4.023 1.349-6.525 1.349-1.92 0-3.695-0.267-5.324-0.802-1.604-0.559-2.989-1.422-4.156-2.589-1.143-1.191-2.041-2.71-2.697-4.557-0.632-1.871-0.948-4.12-0.948-6.745v-25.484h10.5v25.557c0 1.167 0.133 2.151 0.401 2.953 0.291 0.802 0.692 1.458 1.203 1.969s1.105 0.875 1.787 1.094c0.704 0.219 1.483 0.328 2.333 0.328 2.163 0 3.864-0.437 5.104-1.312 1.264-0.875 2.151-2.066 2.661-3.573 0.535-1.531 0.803-3.233 0.803-5.104zM397.997 4.552v7.438h-22.968v-7.438h22.968zM380.716-5.182h10.5v37.297c0 1.142 0.147 2.017 0.439 2.625 0.316 0.608 0.777 1.033 1.385 1.276 0.607 0.219 1.373 0.328 2.296 0.328 0.657 0 1.24-0.024 1.751-0.073 0.535-0.073 0.984-0.146 1.349-0.219l0.036 7.729c-0.9 0.292-1.872 0.523-2.917 0.693-1.044 0.17-2.199 0.255-3.463 0.255-2.309 0-4.327-0.377-6.052-1.13-1.701-0.778-3.015-2.017-3.937-3.719-0.924-1.701-1.387-3.938-1.387-6.708v-38.354zM416.553 4.552v39.448h-10.536v-39.448h10.536zM405.361-5.729c0-1.531 0.535-2.795 1.604-3.792s2.503-1.495 4.301-1.495c1.775 0 3.197 0.498 4.267 1.495 1.093 0.997 1.64 2.26 1.64 3.792s-0.547 2.795-1.64 3.792c-1.069 0.997-2.492 1.495-4.267 1.495-1.799 0-3.232-0.498-4.301-1.495s-1.604-2.26-1.604-3.792zM425.047 24.677v-0.766c0-2.892 0.413-5.554 1.24-7.984 0.827-2.455 2.029-4.582 3.609-6.38s3.524-3.196 5.833-4.193c2.309-1.021 4.959-1.531 7.948-1.531s5.651 0.51 7.984 1.531c2.333 0.997 4.291 2.394 5.871 4.193 1.604 1.799 2.819 3.925 3.645 6.38 0.827 2.431 1.24 5.092 1.24 7.984v0.766c0 2.868-0.413 5.529-1.24 7.984-0.827 2.431-2.041 4.557-3.645 6.38-1.58 1.799-3.525 3.196-5.833 4.193-2.309 0.997-4.959 1.495-7.948 1.495-2.991 0-5.652-0.498-7.985-1.495-2.308-0.997-4.265-2.394-5.869-4.193-1.58-1.823-2.783-3.95-3.609-6.38-0.827-2.455-1.24-5.116-1.24-7.984zM435.547 23.911v0.766c0 1.653 0.147 3.196 0.437 4.63 0.292 1.434 0.755 2.698 1.387 3.792 0.656 1.069 1.507 1.908 2.552 2.516 1.044 0.608 2.32 0.911 3.828 0.911 1.457 0 2.709-0.304 3.755-0.911s1.884-1.446 2.516-2.516c0.632-1.094 1.093-2.358 1.385-3.792 0.316-1.434 0.473-2.977 0.473-4.63v-0.766c0-1.604-0.157-3.111-0.473-4.521-0.292-1.434-0.765-2.698-1.423-3.792-0.631-1.118-1.469-1.993-2.515-2.625s-2.309-0.948-3.792-0.948-2.747 0.316-3.792 0.948c-1.020 0.632-1.859 1.507-2.515 2.625-0.632 1.094-1.095 2.358-1.387 3.792-0.291 1.41-0.437 2.917-0.437 4.521zM480.644 12.974v31.026h-10.5v-39.448h9.844l0.656 8.422zM479.113 22.891h-2.844c0-2.917 0.377-5.542 1.131-7.875 0.753-2.358 1.811-4.363 3.172-6.016 1.361-1.677 2.977-2.953 4.848-3.828 1.896-0.899 4.011-1.349 6.344-1.349 1.848 0 3.537 0.267 5.068 0.802 1.532 0.535 2.844 1.385 3.937 2.552 1.119 1.167 1.969 2.71 2.552 4.63 0.608 1.92 0.912 4.266 0.912 7.036v25.156h-10.573v-25.193c0-1.75-0.243-3.111-0.729-4.083-0.485-0.972-1.203-1.653-2.151-2.042-0.924-0.413-2.065-0.62-3.427-0.62-1.411 0-2.637 0.28-3.683 0.839-1.021 0.559-1.872 1.337-2.552 2.333-0.656 0.972-1.155 2.115-1.495 3.427s-0.511 2.722-0.511 4.229zM535.039 33.099c0-0.753-0.219-1.434-0.656-2.042s-1.252-1.167-2.443-1.677c-1.167-0.535-2.856-1.021-5.068-1.458-1.993-0.437-3.852-0.984-5.577-1.641-1.701-0.681-3.184-1.495-4.448-2.443-1.24-0.948-2.212-2.066-2.917-3.354-0.704-1.313-1.057-2.807-1.057-4.484 0-1.653 0.353-3.208 1.057-4.667 0.729-1.458 1.763-2.747 3.099-3.865 1.361-1.142 3.015-2.029 4.959-2.661 1.969-0.656 4.181-0.984 6.636-0.984 3.427 0 6.368 0.547 8.823 1.641 2.479 1.094 4.375 2.601 5.688 4.521 1.336 1.896 2.004 4.059 2.004 6.49h-10.5c0-1.021-0.219-1.932-0.656-2.734-0.413-0.826-1.069-1.47-1.968-1.932-0.876-0.486-2.017-0.729-3.428-0.729-1.167 0-2.175 0.207-3.025 0.62-0.851 0.389-1.507 0.924-1.969 1.604-0.437 0.656-0.656 1.385-0.656 2.188 0 0.608 0.121 1.155 0.365 1.641 0.267 0.462 0.692 0.887 1.276 1.276 0.583 0.389 1.336 0.753 2.26 1.094 0.948 0.316 2.115 0.608 3.5 0.875 2.844 0.583 5.384 1.349 7.62 2.297 2.236 0.924 4.011 2.187 5.323 3.792 1.312 1.58 1.968 3.658 1.968 6.234 0 1.75-0.388 3.354-1.167 4.813-0.777 1.458-1.895 2.734-3.353 3.828-1.459 1.069-3.208 1.908-5.251 2.516-2.017 0.583-4.289 0.875-6.817 0.875-3.671 0-6.781-0.656-9.333-1.969-2.528-1.313-4.448-2.977-5.76-4.995-1.288-2.042-1.932-4.132-1.932-6.271h9.952c0.049 1.434 0.413 2.589 1.095 3.464 0.704 0.875 1.592 1.507 2.661 1.896 1.093 0.389 2.272 0.583 3.536 0.583 1.361 0 2.492-0.182 3.391-0.547 0.9-0.389 1.58-0.899 2.041-1.531 0.487-0.656 0.729-1.41 0.729-2.26zM-73.389 124h-10.573v-42.948c0-2.99 0.583-5.505 1.75-7.547 1.191-2.066 2.856-3.621 4.995-4.667 2.163-1.069 4.727-1.604 7.693-1.604 0.972 0 1.908 0.073 2.807 0.219 0.899 0.122 1.774 0.28 2.625 0.474l-0.109 7.911c-0.462-0.121-0.948-0.207-1.458-0.255s-1.106-0.073-1.786-0.073c-1.264 0-2.345 0.219-3.245 0.656-0.875 0.413-1.543 1.033-2.005 1.859s-0.693 1.835-0.693 3.026v42.948zM-65.514 84.552v7.437h-24.318v-7.437h24.318zM-60.193 104.677v-0.766c0-2.892 0.413-5.554 1.24-7.984 0.826-2.455 2.029-4.582 3.609-6.38s3.524-3.196 5.833-4.193c2.309-1.021 4.958-1.531 7.948-1.531s5.651 0.51 7.984 1.531c2.333 0.997 4.29 2.394 5.87 4.193 1.604 1.799 2.819 3.925 3.646 6.38 0.826 2.431 1.24 5.092 1.24 7.984v0.766c0 2.868-0.413 5.529-1.24 7.984-0.826 2.431-2.042 4.557-3.646 6.38-1.58 1.799-3.524 3.196-5.833 4.193s-4.958 1.495-7.948 1.495c-2.99 0-5.651-0.498-7.984-1.495-2.309-0.997-4.266-2.394-5.87-4.193-1.58-1.823-2.783-3.95-3.609-6.38-0.826-2.455-1.24-5.116-1.24-7.984zM-49.693 103.911v0.766c0 1.653 0.146 3.196 0.437 4.63s0.753 2.698 1.385 3.792c0.656 1.069 1.507 1.908 2.552 2.516s2.321 0.911 3.828 0.911c1.458 0 2.71-0.304 3.755-0.911s1.884-1.446 2.516-2.516c0.632-1.094 1.094-2.358 1.385-3.792 0.316-1.434 0.474-2.977 0.474-4.63v-0.766c0-1.604-0.158-3.111-0.474-4.521-0.292-1.434-0.766-2.698-1.422-3.792-0.632-1.118-1.47-1.993-2.516-2.625s-2.309-0.948-3.792-0.948c-1.483 0-2.747 0.316-3.792 0.948-1.021 0.632-1.859 1.507-2.516 2.625-0.632 1.094-1.094 2.358-1.385 3.792-0.292 1.41-0.437 2.917-0.437 4.521zM-4.377 93.156v30.844h-10.5v-39.448h9.88l0.62 8.604zM7.509 84.297l-0.182 9.734c-0.51-0.073-1.13-0.134-1.859-0.182-0.705-0.073-1.349-0.109-1.932-0.109-1.483 0-2.771 0.194-3.865 0.583-1.069 0.365-1.969 0.911-2.698 1.641-0.705 0.729-1.24 1.616-1.604 2.661-0.34 1.045-0.535 2.236-0.583 3.573l-2.115-0.656c0-2.552 0.255-4.897 0.766-7.036 0.51-2.163 1.252-4.047 2.224-5.651 0.997-1.604 2.212-2.844 3.646-3.719s3.075-1.313 4.922-1.313c0.583 0 1.179 0.049 1.786 0.146 0.608 0.073 1.106 0.182 1.495 0.328zM41.995 70.917l11.083 24.208 11.083-24.208h11.922l-17.464 33.76v19.323h-11.083v-19.323l-17.5-33.76h11.958zM77.687 104.677v-0.766c0-2.892 0.413-5.554 1.24-7.984 0.826-2.455 2.029-4.582 3.609-6.38s3.524-3.196 5.833-4.193c2.309-1.021 4.958-1.531 7.948-1.531s5.651 0.51 7.984 1.531c2.333 0.997 4.29 2.394 5.87 4.193 1.604 1.799 2.819 3.925 3.646 6.38 0.826 2.431 1.24 5.092 1.24 7.984v0.766c0 2.868-0.413 5.529-1.24 7.984-0.826 2.431-2.042 4.557-3.646 6.38-1.58 1.799-3.524 3.196-5.833 4.193s-4.958 1.495-7.948 1.495-5.651-0.498-7.984-1.495c-2.309-0.997-4.266-2.394-5.87-4.193-1.58-1.823-2.783-3.95-3.609-6.38-0.826-2.455-1.24-5.116-1.24-7.984zM88.187 103.911v0.766c0 1.653 0.146 3.196 0.437 4.63s0.753 2.698 1.385 3.792c0.656 1.069 1.507 1.908 2.552 2.516s2.321 0.911 3.828 0.911c1.458 0 2.71-0.304 3.755-0.911s1.884-1.446 2.516-2.516c0.632-1.094 1.094-2.358 1.385-3.792 0.316-1.434 0.474-2.977 0.474-4.63v-0.766c0-1.604-0.158-3.111-0.474-4.521-0.292-1.434-0.766-2.698-1.422-3.792-0.632-1.118-1.471-1.993-2.516-2.625s-2.309-0.948-3.792-0.948c-1.483 0-2.747 0.316-3.792 0.948-1.021 0.632-1.859 1.507-2.516 2.625-0.632 1.094-1.094 2.358-1.385 3.792-0.292 1.41-0.437 2.917-0.437 4.521zM146.336 114.557v-30.005h10.5v39.448h-9.88l-0.62-9.443zM147.503 106.464l3.099-0.073c0 2.625-0.303 5.068-0.911 7.328-0.608 2.236-1.52 4.181-2.735 5.833-1.215 1.628-2.747 2.904-4.593 3.828-1.848 0.899-4.023 1.349-6.527 1.349-1.92 0-3.694-0.267-5.323-0.802-1.604-0.559-2.99-1.422-4.156-2.589-1.142-1.191-2.042-2.71-2.698-4.557-0.632-1.871-0.948-4.12-0.948-6.745v-25.484h10.5v25.557c0 1.167 0.134 2.151 0.401 2.953 0.292 0.802 0.693 1.458 1.204 1.969 0.509 0.51 1.105 0.875 1.785 1.094 0.705 0.219 1.483 0.328 2.333 0.328 2.164 0 3.865-0.437 5.105-1.312 1.263-0.875 2.151-2.066 2.661-3.573 0.535-1.531 0.801-3.233 0.801-5.104zM176.851 93.156v30.844h-10.5v-39.448h9.88l0.62 8.604zM188.736 84.297l-0.183 9.734c-0.511-0.073-1.131-0.134-1.859-0.182-0.705-0.073-1.349-0.109-1.933-0.109-1.483 0-2.771 0.194-3.864 0.583-1.069 0.365-1.969 0.911-2.697 1.641-0.705 0.729-1.24 1.616-1.605 2.661-0.34 1.045-0.535 2.236-0.583 3.573l-2.115-0.656c0-2.552 0.255-4.897 0.765-7.036 0.511-2.163 1.252-4.047 2.224-5.651 0.997-1.604 2.212-2.844 3.647-3.719 1.433-0.875 3.075-1.313 4.921-1.313 0.583 0 1.179 0.049 1.787 0.146 0.608 0.073 1.105 0.182 1.495 0.328zM236.712 100.703h-13.636l-0.072-7.51h11.448c2.017 0 3.669-0.255 4.957-0.766 1.289-0.535 2.249-1.3 2.881-2.297 0.656-1.021 0.984-2.261 0.984-3.719 0-1.653-0.316-2.99-0.948-4.010-0.608-1.021-1.568-1.762-2.88-2.224-1.288-0.462-2.953-0.693-4.995-0.693h-7.584v44.516h-10.937v-53.083h18.521c3.087 0 5.845 0.292 8.276 0.875 2.455 0.583 4.533 1.47 6.235 2.661s3.001 2.698 3.9 4.521c0.9 1.799 1.349 3.937 1.349 6.417 0 2.187-0.499 4.205-1.495 6.052-0.972 1.847-2.516 3.354-4.631 4.521-2.089 1.167-4.824 1.811-8.203 1.932l-3.172 2.807zM236.239 124h-16.152l4.267-8.531h11.885c1.92 0 3.487-0.304 4.703-0.911 1.215-0.632 2.115-1.483 2.697-2.552 0.584-1.069 0.876-2.297 0.876-3.682 0-1.556-0.268-2.905-0.803-4.047-0.511-1.142-1.337-2.017-2.479-2.625-1.143-0.632-2.649-0.948-4.521-0.948h-10.536l0.072-7.51h13.125l2.516 2.953c3.232-0.049 5.833 0.523 7.801 1.713 1.993 1.167 3.44 2.686 4.339 4.557 0.924 1.871 1.385 3.877 1.385 6.016 0 3.403-0.741 6.271-2.224 8.604-1.483 2.309-3.657 4.047-6.525 5.214-2.844 1.167-6.32 1.75-10.427 1.75zM287.789 114.557v-30.005h10.5v39.448h-9.881l-0.619-9.443zM288.956 106.464l3.099-0.073c0 2.625-0.304 5.068-0.912 7.328-0.608 2.236-1.519 4.181-2.735 5.833-1.215 1.628-2.745 2.904-4.593 3.828-1.847 0.899-4.023 1.349-6.525 1.349-1.921 0-3.695-0.267-5.324-0.802-1.604-0.559-2.989-1.422-4.156-2.589-1.143-1.191-2.041-2.71-2.697-4.557-0.632-1.871-0.948-4.12-0.948-6.745v-25.484h10.5v25.557c0 1.167 0.133 2.151 0.401 2.953 0.291 0.802 0.692 1.458 1.203 1.969s1.105 0.875 1.787 1.094c0.704 0.219 1.483 0.328 2.333 0.328 2.163 0 3.864-0.437 5.104-1.312 1.264-0.875 2.151-2.066 2.661-3.573 0.535-1.531 0.803-3.233 0.803-5.104zM329.131 113.099c0-0.753-0.219-1.434-0.656-2.042s-1.252-1.167-2.443-1.677c-1.167-0.535-2.856-1.021-5.068-1.458-1.993-0.437-3.852-0.984-5.577-1.641-1.701-0.681-3.184-1.495-4.448-2.443-1.24-0.948-2.212-2.066-2.917-3.354-0.704-1.313-1.057-2.807-1.057-4.484 0-1.653 0.353-3.208 1.057-4.667 0.729-1.458 1.763-2.747 3.099-3.865 1.361-1.142 3.015-2.030 4.959-2.661 1.969-0.656 4.181-0.984 6.636-0.984 3.427 0 6.368 0.547 8.823 1.641 2.479 1.094 4.375 2.601 5.688 4.521 1.336 1.896 2.004 4.059 2.004 6.49h-10.5c0-1.021-0.219-1.932-0.656-2.734-0.413-0.826-1.069-1.471-1.968-1.932-0.876-0.486-2.017-0.729-3.428-0.729-1.167 0-2.175 0.207-3.025 0.62-0.851 0.389-1.507 0.924-1.969 1.604-0.437 0.656-0.656 1.385-0.656 2.187 0 0.608 0.121 1.155 0.365 1.641 0.267 0.462 0.692 0.887 1.276 1.276 0.583 0.389 1.336 0.753 2.26 1.094 0.948 0.316 2.115 0.608 3.5 0.875 2.844 0.583 5.384 1.349 7.62 2.297 2.236 0.924 4.011 2.187 5.323 3.792 1.312 1.58 1.969 3.658 1.969 6.234 0 1.75-0.389 3.354-1.167 4.813-0.779 1.458-1.896 2.734-3.355 3.828-1.459 1.069-3.208 1.908-5.251 2.516-2.017 0.583-4.289 0.875-6.817 0.875-3.669 0-6.781-0.656-9.333-1.969-2.528-1.313-4.448-2.977-5.76-4.995-1.288-2.042-1.932-4.132-1.932-6.271h9.952c0.049 1.434 0.413 2.589 1.095 3.464 0.704 0.875 1.592 1.507 2.661 1.896 1.093 0.389 2.272 0.583 3.536 0.583 1.361 0 2.492-0.182 3.391-0.547 0.9-0.389 1.58-0.899 2.041-1.531 0.487-0.656 0.729-1.41 0.729-2.26zM358.733 84.552v39.448h-10.536v-39.448h10.536zM347.541 74.271c0-1.531 0.535-2.795 1.604-3.792s2.503-1.495 4.301-1.495c1.775 0 3.197 0.498 4.267 1.495 1.093 0.997 1.64 2.26 1.64 3.792s-0.547 2.795-1.64 3.792c-1.069 0.997-2.492 1.495-4.267 1.495-1.799 0-3.232-0.498-4.301-1.495s-1.604-2.26-1.604-3.792zM379.185 92.974v31.026h-10.5v-39.448h9.844l0.656 8.422zM377.655 102.891h-2.844c0-2.917 0.376-5.542 1.129-7.875 0.755-2.358 1.812-4.363 3.172-6.016 1.361-1.677 2.977-2.953 4.849-3.828 1.896-0.899 4.011-1.349 6.344-1.349 1.847 0 3.536 0.267 5.068 0.802 1.531 0.535 2.843 1.385 3.937 2.552 1.117 1.167 1.968 2.71 2.552 4.63 0.608 1.92 0.911 4.266 0.911 7.036v25.156h-10.572v-25.193c0-1.75-0.244-3.111-0.729-4.083-0.487-0.972-1.203-1.653-2.151-2.042-0.924-0.413-2.067-0.62-3.428-0.62-1.409 0-2.637 0.279-3.681 0.839-1.021 0.559-1.872 1.337-2.552 2.333-0.657 0.972-1.155 2.115-1.496 3.427-0.34 1.313-0.509 2.722-0.509 4.229zM430.408 124.729c-3.063 0-5.809-0.486-8.24-1.458-2.431-0.997-4.496-2.37-6.197-4.12-1.677-1.75-2.965-3.78-3.865-6.089-0.899-2.333-1.348-4.813-1.348-7.437v-1.458c0-2.99 0.425-5.724 1.276-8.203s2.065-4.63 3.645-6.453c1.604-1.823 3.548-3.221 5.833-4.193 2.285-0.997 4.861-1.495 7.729-1.495 2.795 0 5.275 0.462 7.437 1.385s3.975 2.236 5.432 3.938c1.483 1.701 2.601 3.743 3.355 6.125 0.753 2.358 1.131 4.983 1.131 7.875v4.375h-31.355v-7h21.036v-0.802c0-1.458-0.267-2.759-0.801-3.901-0.511-1.167-1.288-2.090-2.333-2.771s-2.383-1.021-4.011-1.021c-1.385 0-2.576 0.304-3.573 0.911-0.996 0.608-1.811 1.458-2.443 2.552-0.608 1.094-1.069 2.382-1.385 3.865-0.292 1.458-0.437 3.063-0.437 4.813v1.458c0 1.58 0.219 3.038 0.656 4.375 0.463 1.337 1.107 2.491 1.932 3.464 0.851 0.972 1.872 1.726 3.063 2.26 1.216 0.535 2.589 0.802 4.12 0.802 1.896 0 3.659-0.365 5.287-1.094 1.653-0.753 3.075-1.884 4.265-3.391l5.104 5.542c-0.827 1.191-1.956 2.333-3.391 3.427-1.409 1.094-3.111 1.993-5.104 2.698-1.993 0.681-4.265 1.021-6.817 1.021zM475.396 113.099c0-0.753-0.219-1.434-0.656-2.042s-1.252-1.167-2.443-1.677c-1.167-0.535-2.856-1.021-5.068-1.458-1.993-0.437-3.852-0.984-5.579-1.641-1.701-0.681-3.184-1.495-4.448-2.443-1.239-0.948-2.211-2.066-2.916-3.354-0.705-1.313-1.057-2.807-1.057-4.484 0-1.653 0.352-3.208 1.057-4.667 0.729-1.458 1.763-2.747 3.099-3.865 1.361-1.142 3.015-2.030 4.959-2.661 1.968-0.656 4.18-0.984 6.635-0.984 3.428 0 6.369 0.547 8.824 1.641 2.479 1.094 4.375 2.601 5.687 4.521 1.337 1.896 2.005 4.059 2.005 6.49h-10.5c0-1.021-0.219-1.932-0.656-2.734-0.413-0.826-1.069-1.471-1.969-1.932-0.875-0.486-2.017-0.729-3.427-0.729-1.167 0-2.175 0.207-3.025 0.62-0.851 0.389-1.508 0.924-1.969 1.604-0.437 0.656-0.656 1.385-0.656 2.187 0 0.608 0.121 1.155 0.364 1.641 0.268 0.462 0.693 0.887 1.276 1.276 0.584 0.389 1.337 0.753 2.261 1.094 0.948 0.316 2.115 0.608 3.5 0.875 2.843 0.583 5.383 1.349 7.619 2.297 2.237 0.924 4.011 2.187 5.324 3.792 1.312 1.58 1.968 3.658 1.968 6.234 0 1.75-0.388 3.354-1.167 4.813-0.777 1.458-1.896 2.734-3.353 3.828-1.459 1.069-3.209 1.908-5.251 2.516-2.017 0.583-4.289 0.875-6.817 0.875-3.671 0-6.781-0.656-9.333-1.969-2.528-1.313-4.448-2.977-5.76-4.995-1.289-2.042-1.933-4.132-1.933-6.271h9.953c0.049 1.434 0.413 2.589 1.093 3.464 0.705 0.875 1.592 1.507 2.663 1.896 1.093 0.389 2.272 0.583 3.536 0.583 1.361 0 2.491-0.182 3.391-0.547 0.899-0.389 1.58-0.899 2.041-1.531 0.487-0.656 0.729-1.41 0.729-2.26zM515.244 113.099c0-0.753-0.219-1.434-0.657-2.042-0.437-0.608-1.251-1.167-2.443-1.677-1.167-0.535-2.855-1.021-5.067-1.458-1.993-0.437-3.853-0.984-5.579-1.641-1.701-0.681-3.184-1.495-4.448-2.443-1.24-0.948-2.212-2.066-2.916-3.354-0.705-1.313-1.057-2.807-1.057-4.484 0-1.653 0.352-3.208 1.057-4.667 0.729-1.458 1.761-2.747 3.099-3.865 1.361-1.142 3.013-2.030 4.959-2.661 1.968-0.656 4.18-0.984 6.635-0.984 3.427 0 6.368 0.547 8.823 1.641 2.48 1.094 4.376 2.601 5.688 4.521 1.337 1.896 2.005 4.059 2.005 6.49h-10.5c0-1.021-0.219-1.932-0.656-2.734-0.413-0.826-1.069-1.471-1.969-1.932-0.875-0.486-2.017-0.729-3.427-0.729-1.167 0-2.176 0.207-3.027 0.62-0.851 0.389-1.507 0.924-1.968 1.604-0.437 0.656-0.656 1.385-0.656 2.187 0 0.608 0.121 1.155 0.364 1.641 0.268 0.462 0.693 0.887 1.276 1.276 0.584 0.389 1.337 0.753 2.26 1.094 0.948 0.316 2.115 0.608 3.5 0.875 2.844 0.583 5.384 1.349 7.62 2.297 2.236 0.924 4.011 2.187 5.323 3.792 1.313 1.58 1.969 3.658 1.969 6.234 0 1.75-0.389 3.354-1.167 4.813s-1.896 2.734-3.355 3.828c-1.457 1.069-3.208 1.908-5.249 2.516-2.017 0.583-4.291 0.875-6.817 0.875-3.671 0-6.781-0.656-9.333-1.969-2.528-1.313-4.448-2.977-5.761-4.995-1.288-2.042-1.932-4.132-1.932-6.271h9.953c0.048 1.434 0.413 2.589 1.093 3.464 0.705 0.875 1.592 1.507 2.661 1.896 1.095 0.389 2.273 0.583 3.537 0.583 1.36 0 2.491-0.182 3.391-0.547 0.899-0.389 1.579-0.899 2.041-1.531 0.485-0.656 0.729-1.41 0.729-2.26z"></path>
<path fill="#2e2f42" style="fill: var(--color3, #2e2f42)" opacity="0.4" d="M-741.333-378.667h1920v901.333h-1920v-901.333z"></path>
<path fill="#fcfcfc" style="fill: var(--color10, #fcfcfc)" d="M-48-272h533.333c2.946 0 5.333 2.388 5.333 5.333v768c0 2.946-2.388 5.333-5.333 5.333h-533.333c-2.946 0-5.333-2.388-5.333-5.333v-768c0-2.946 2.388-5.333 5.333-5.333z"></path>
<path fill="none" stroke="#2e2f42" style="stroke: var(--color3, #2e2f42)" stroke-linejoin="miter" stroke-linecap="butt" stroke-miterlimit="4" stroke-width="1.3333" d="M-16-10h469.333c2.577 0 4.667 2.089 4.667 4.667v42.667c0 2.577-2.089 4.667-4.667 4.667h-469.333c-2.577 0-4.667-2.089-4.667-4.667v-42.667c0-2.577 2.089-4.667 4.667-4.667z"></path>
<path fill="#2e2f42" style="fill: var(--color3, #2e2f42)" d="M19.635 18.487l-2.451-0.28c-0.589-0.067-1.167 0.135-1.582 0.55l-1.775 1.775c-2.731-1.389-4.969-3.618-6.359-6.359l1.785-1.785c0.415-0.415 0.618-0.994 0.55-1.582l-0.28-2.432c-0.116-0.975-0.936-1.708-1.92-1.708h-1.669c-1.090 0-1.997 0.907-1.93 1.997 0.511 8.24 7.102 14.821 15.332 15.332 1.090 0.068 1.997-0.839 1.997-1.93v-1.669c0.010-0.975-0.724-1.795-1.698-1.911z"></path>
</symbol>
</defs>
</svg>
